<svg width="35" height="40" viewBox="0 0 35 40" fill="none" xmlns="http://www.w3.org/2000/svg">
<g clip-path="url(#clip0)">
<path d="M34.8467 0.426127C34.6992 0.259875 34.4779 0.20872 34.284 0.295852L27.1514 3.50812C27.0779 3.54132 27.0121 3.59271 26.9588 3.65881L22.2264 9.52795C22.0326 9.76839 22.0484 10.1403 22.2617 10.3588C22.4751 10.5773 22.8051 10.5595 22.999 10.3191L27.6504 4.55024L32.3121 2.45074L11.7214 25.6561L11.1512 25.0134L21.3618 12.3495C21.5557 12.1091 21.5399 11.7372 21.3266 11.5187C21.1132 11.3002 20.7832 11.318 20.5893 11.5584L10.4123 24.1807L10.3134 24.0693C9.13738 22.7441 7.22502 22.7419 6.04678 24.063C5.99557 24.1204 5.95285 24.1882 5.92619 24.2639C5.846 24.4916 5.89714 24.7389 6.04117 24.9012L7.67373 26.7411C5.47604 28.4689 3.59445 30.5972 2.06907 33.0816C1.53088 32.7962 0.868611 32.9019 0.42448 33.4025C-0.141127 34.04 -0.141127 35.0774 0.42448 35.715L3.53422 39.2196C3.87602 39.6048 4.3585 39.7742 4.85117 39.6667C5.01967 39.63 5.18169 39.5574 5.32654 39.4536C5.98792 38.9792 6.16757 38.0767 5.87082 37.3661C8.07541 35.6471 9.96391 33.5265 11.497 31.0497L13.1211 32.88C13.1725 32.938 13.2321 32.9874 13.2995 33.018C13.5022 33.1101 13.7231 33.0528 13.8677 32.8897C14.4398 32.245 14.7542 31.3872 14.7525 30.4751C14.7509 29.557 14.4062 28.6817 13.8301 28.0324L13.7689 27.9634L15.7814 25.9024C15.9948 25.6839 16.0106 25.3119 15.8167 25.0715C15.6228 24.831 15.2928 24.8132 15.0795 25.0317L13.0299 27.1305L12.4596 26.4878L33.0502 3.28262L31.1874 8.53544L16.8811 23.1867C16.6678 23.4052 16.6521 23.7771 16.8459 24.0176C17.0397 24.258 17.3698 24.2758 17.5831 24.0573L31.9784 9.31493C32.037 9.25492 32.0827 9.18073 32.112 9.09784L34.9622 1.06024C35.0398 0.841912 34.9943 0.592457 34.8467 0.426127ZM4.84802 38.3878C4.77119 38.4744 4.66892 38.5221 4.56023 38.5221C4.45147 38.5221 4.34927 38.4745 4.27237 38.3877L1.16263 34.8832C1.00389 34.7043 1.00389 34.4131 1.16263 34.2343C1.24199 34.1447 1.34624 34.1001 1.45049 34.1001C1.55474 34.1001 1.65905 34.1448 1.73835 34.2343L4.71746 37.5918L4.75847 37.638L4.84802 37.739C5.00682 37.9178 5.00682 38.2088 4.84802 38.3878ZM5.19317 36.4641L4.9587 36.1999L2.86936 33.8452C3.08373 33.4925 3.30652 33.1481 3.53573 32.8105L6.11131 35.7131C5.81176 35.9715 5.50619 36.2225 5.19317 36.4641ZM6.92916 34.9712L4.19416 31.8888C4.48107 31.5066 4.77754 31.1346 5.08448 30.7742L7.91825 33.9678C7.59833 34.3137 7.26822 34.6479 6.92916 34.9712ZM8.65291 33.1323L5.82591 29.9462C6.14815 29.6034 6.4797 29.2711 6.82122 28.9509L9.53612 32.0106C9.25202 32.3955 8.95718 32.7691 8.65291 33.1323ZM10.1882 31.0818L7.64543 28.2161C7.90014 28.0002 8.15936 27.7899 8.42357 27.586L9.58547 28.8954L10.7473 30.205C10.5662 30.5026 10.3797 30.7947 10.1882 31.0818ZM13.1296 28.9068C13.503 29.3276 13.7086 29.8871 13.7086 30.4824C13.7086 30.8761 13.6187 31.2543 13.4496 31.5869L7.19754 24.5408C7.95216 24.0562 8.93196 24.1761 9.57522 24.9011L13.1296 28.9068Z" fill="#878585"/>
</g>
<defs>
<clipPath id="clip0">
<rect width="35" height="39.4444" fill="white" transform="translate(0 0.253967)"/>
</clipPath>
</defs>
</svg>
