<svg width="35" height="40" viewBox="0 0 35 40" fill="none" xmlns="http://www.w3.org/2000/svg">
<g clip-path="url(#clip0)">
<path d="M31.0984 8.21647C31.2963 7.99378 31.2963 7.62062 31.0984 7.39792L28.7737 4.77796C28.5761 4.55497 28.245 4.55497 28.0474 4.77796L0.150343 36.2172C-0.0501957 36.4432 -0.0501957 36.81 0.150343 37.036L2.4751 39.6557C2.5755 39.7688 2.70688 39.8254 2.83852 39.8254C2.9699 39.8254 3.10128 39.7688 3.20168 39.6557L8.10086 34.1344C8.30166 33.9084 8.30166 33.5418 8.10086 33.3158C7.90032 33.0895 7.57508 33.0895 7.37454 33.3158L2.83852 38.4279L1.24009 36.6268L20.6614 14.7393L22.2598 16.5404L9.00128 31.4825C8.80047 31.7085 8.80047 32.0751 9.00128 32.3011C9.20182 32.5274 9.52706 32.5274 9.7276 32.3011L31.0984 8.21647ZM21.3879 13.9204L28.4105 6.00609L30.0087 7.8072L22.9861 15.7215L21.3879 13.9204Z" fill="#692D02"/>
<path d="M34.4862 7.79124H33.3904C33.1068 7.79124 32.8766 8.05035 32.8766 8.37025C32.8766 8.68984 33.1068 8.94925 33.3904 8.94925H34.4862C34.7701 8.94925 35 8.68984 35 8.37025C35 8.05035 34.7701 7.79124 34.4862 7.79124Z" fill="#FFDA58"/>
<path d="M33.6617 11.1825L32.7126 10.565C32.467 10.4049 32.1527 10.5 32.0109 10.7768C31.8691 11.0537 31.9532 11.4079 32.1989 11.5677L33.1479 12.1852C33.4101 12.3558 33.7543 12.227 33.8756 11.9156C33.9792 11.6492 33.8852 11.3278 33.6617 11.1825Z" fill="#FFDA58"/>
<path d="M30.895 12.5852C30.7532 12.3083 30.4389 12.2135 30.1932 12.3733C29.9475 12.5331 29.8634 12.8873 30.0052 13.1642L30.5532 14.2337C30.704 14.5284 31.0592 14.6123 31.303 14.4104C31.511 14.2379 31.5719 13.9066 31.4429 13.6547L30.895 12.5852Z" fill="#FFDA58"/>
<path d="M33.0042 6.08766C33.0913 6.08766 33.1797 6.06268 33.2606 6.01002L34.2096 5.3925C34.4553 5.2327 34.5394 4.8785 34.3976 4.60164C34.2558 4.32478 33.9415 4.22998 33.6958 4.38978L32.7468 5.0073C32.5556 5.13159 32.4549 5.38799 32.5014 5.63084C32.5521 5.89446 32.765 6.08766 33.0042 6.08766Z" fill="#FFDA58"/>
<path d="M32.2039 1.67739C31.9583 1.51729 31.644 1.61239 31.5022 1.88925L30.9542 2.95878C30.8253 3.21066 30.8862 3.5417 31.0944 3.71413C31.338 3.91606 31.6931 3.8324 31.844 3.53778L32.3919 2.46825C32.534 2.19109 32.4496 1.83719 32.2039 1.67739Z" fill="#FFDA58"/>
<path d="M29.0068 2.77402C29.2907 2.77402 29.5206 2.51461 29.5206 2.19502V0.959969C29.5206 0.640073 29.2907 0.380966 29.0068 0.380966C28.7232 0.380966 28.493 0.640073 28.493 0.959969V2.19502C28.493 2.51461 28.7232 2.77402 29.0068 2.77402Z" fill="#FFDA58"/>
<path d="M26.0228 2.92029C26.1178 3.10597 26.2906 3.2098 26.4682 3.2098C26.5552 3.2098 26.6436 3.18482 26.7245 3.13215C26.9702 2.97236 27.0543 2.61815 26.9125 2.34129L26.3645 1.27176C26.2228 0.994898 25.9085 0.900103 25.6628 1.0599C25.4171 1.2197 25.333 1.5739 25.4748 1.85076L26.0228 2.92029Z" fill="#FFDA58"/>
<path d="M23.2561 4.32292L24.2051 4.94044C24.4673 5.11107 24.8115 4.98227 24.9327 4.6708C25.0366 4.40417 24.9424 4.08307 24.7189 3.93772L23.7698 3.3202C23.5242 3.1601 23.2099 3.25519 23.0681 3.53206C22.9263 3.80892 23.0104 4.16312 23.2561 4.32292Z" fill="#FFDA58"/>
<path d="M22.4315 7.7142H23.5274C23.811 7.7142 24.0411 7.4548 24.0411 7.1352C24.0411 6.81531 23.811 6.5562 23.5274 6.5562H22.4315C22.1479 6.5562 21.9177 6.81531 21.9177 7.1352C21.9177 7.4548 22.1479 7.7142 22.4315 7.7142Z" fill="#FFDA58"/>
</g>
<defs>
<clipPath id="clip0">
<rect width="35" height="39.4444" fill="white" transform="translate(0 0.380966)"/>
</clipPath>
</defs>
</svg>
