<svg width="50" height="50" viewBox="0 0 50 50" fill="none" xmlns="http://www.w3.org/2000/svg">
<g clip-path="url(#clip0)">
<path d="M49.2188 8.98523H21.0938C20.6617 8.98523 20.3125 9.33445 20.3125 9.76648V16.7962H14.0625C14.0273 16.7962 13.9984 16.8118 13.9648 16.8157C13.9039 16.8235 13.8438 16.8298 13.7852 16.8516C13.732 16.8719 13.6875 16.9055 13.6391 16.9368C13.6078 16.9579 13.5727 16.9673 13.5438 16.993L7.78203 22.1141C7.71016 21.7579 7.40937 21.4837 7.03125 21.4837H5.46875V19.9212C5.46875 19.4891 5.11953 19.1399 4.6875 19.1399H0.78125C0.349219 19.1399 0 19.4891 0 19.9212C0 20.3532 0.349219 20.7024 0.78125 20.7024H3.90625V39.4524H0.78125C0.349219 39.4524 0 39.8016 0 40.2337C0 40.6657 0.349219 41.0149 0.78125 41.0149H4.6875C5.11953 41.0149 5.46875 40.6657 5.46875 40.2337V38.6712H7.03125C7.46328 38.6712 7.8125 38.3219 7.8125 37.8899H20.3125C20.3203 37.8899 20.3266 37.886 20.3328 37.886C20.4273 37.8829 20.5211 37.8665 20.6102 37.8298C20.707 37.7899 20.7937 37.7313 20.8664 37.6579L24.5273 33.9837H31.2641C32.3188 33.9837 32.9383 33.5641 33.7117 32.7907C33.7141 32.7883 33.7141 32.786 33.7164 32.7837C33.7188 32.7813 33.7219 32.7805 33.7242 32.7782L37.0523 29.2962H49.2188C49.6508 29.2962 50 28.9469 50 28.5149V9.76648C50 9.33445 49.6508 8.98523 49.2188 8.98523V8.98523ZM21.875 10.5477H48.4375V14.0813V27.7337H30.7531L31.0219 27.4641C31.0227 27.4634 31.0227 27.4626 31.0234 27.461C31.0242 27.4602 31.0258 27.4602 31.0266 27.4594C31.6742 26.8001 32.0312 25.9259 32.0312 24.9993C32.0312 23.061 30.4539 21.4837 28.5156 21.4837C27.6937 21.4837 26.8961 21.7719 26.2672 22.2969C26.2664 22.2977 26.2656 22.2993 26.2641 22.3009C26.2633 22.3016 26.2617 22.3016 26.2609 22.3024L21.875 26.0415V10.5477ZM5.46875 23.0462H6.25V37.1087H5.46875V23.0462ZM7.8125 24.1774L14.3594 18.3587H20.3125V27.7337C20.3125 27.7719 20.3289 27.8048 20.3336 27.8423C20.3414 27.8962 20.3477 27.9493 20.3664 28.0009C20.3859 28.0548 20.4172 28.1008 20.4477 28.1485C20.4664 28.1782 20.475 28.2126 20.4984 28.2399C20.5047 28.2477 20.5141 28.2501 20.5203 28.2563C20.5766 28.318 20.6453 28.3657 20.7188 28.4055C20.7398 28.418 20.7578 28.4368 20.7797 28.4469C20.8758 28.4891 20.9812 28.5141 21.0922 28.5141C21.1891 28.5141 21.2852 28.493 21.3766 28.4571C21.4141 28.4415 21.4445 28.4173 21.4789 28.3977C21.5195 28.3743 21.5617 28.3587 21.5984 28.3274L27.2656 23.4954H27.2664C27.6195 23.2008 28.0508 23.0454 28.5141 23.0454C29.5914 23.0454 30.4672 23.9212 30.4672 24.9985C30.4672 25.5133 30.2688 25.9985 29.9094 26.3649L28.3195 27.961C28.3188 27.9618 28.3188 27.9618 28.318 27.9626L23.6508 32.6477C23.6492 32.6485 23.6477 32.6501 23.6469 32.6516L19.9852 36.3266H7.8125V24.1774ZM29.1969 29.2962H30.9703L28.6789 31.6923C28.0453 32.3243 27.8125 32.4212 27.3438 32.4212H26.0844L29.1969 29.2962ZM32.6008 31.6923C31.9664 32.3243 31.7344 32.4212 31.2648 32.4212H30.1445L33.1313 29.2962H34.8906L32.6008 31.6923Z" fill="white"/>
<path d="M46.2554 11.5758C45.9499 11.2703 45.4562 11.2703 45.1507 11.5758L43.1976 13.5289C42.8921 13.8344 42.8921 14.3281 43.1976 14.6336L45.1507 16.5867C45.3031 16.7391 45.5031 16.8156 45.7031 16.8156C45.9031 16.8156 46.1031 16.7391 46.2554 16.5867L48.2085 14.6336C48.3609 14.4812 48.4374 14.2812 48.4374 14.0812C48.4374 13.8812 48.3609 13.6812 48.2085 13.5289L46.2554 11.5758ZM45.7031 14.9297L44.8546 14.0812L45.7031 13.2328L46.5515 14.0812L45.7031 14.9297Z" fill="white"/>
<path d="M34.6024 23.6187C34.7547 23.7711 34.9547 23.8476 35.1547 23.8476C35.3547 23.8476 35.5547 23.7711 35.7071 23.6187L39.6133 19.7125C39.9188 19.407 39.9188 18.9132 39.6133 18.6078L35.7071 14.7015C35.4016 14.396 34.9079 14.396 34.6024 14.7015L30.6961 18.6078C30.3907 18.9132 30.3907 19.407 30.6961 19.7125L34.6024 23.6187ZM35.1547 16.3585L37.9563 19.1601L35.1547 21.9617L32.3532 19.1601L35.1547 16.3585Z" fill="white"/>
</g>
<defs>
<clipPath id="clip0">
<rect width="50" height="50" fill="white"/>
</clipPath>
</defs>
</svg>
