<svg width="60" height="60" viewBox="0 0 60 60" fill="none" xmlns="http://www.w3.org/2000/svg">
<circle cx="29.8923" cy="29.8494" r="27.3493" fill="black" stroke="white" stroke-width="5"/>
<path d="M29.8923 59.6987C33.8122 59.6987 37.6936 58.9266 41.3151 57.4265C44.9366 55.9265 48.2272 53.7278 50.999 50.956C53.7707 48.1843 55.9694 44.8937 57.4695 41.2722C58.9695 37.6507 59.7416 33.7692 59.7416 29.8494C59.7416 25.9295 58.9695 22.048 57.4695 18.4265C55.9694 14.805 53.7707 11.5145 50.999 8.7427C48.2272 5.97093 44.9366 3.77224 41.3151 2.27217C37.6936 0.772106 33.8122 3.03462e-05 29.8923 3.05176e-05L29.8923 11.9398C32.2442 11.9398 34.5731 12.403 36.746 13.303C38.9189 14.2031 40.8932 15.5223 42.5563 17.1854C44.2194 18.8484 45.5386 20.8228 46.4386 22.9957C47.3386 25.1685 47.8019 27.4974 47.8019 29.8494C47.8019 32.2013 47.3386 34.5302 46.4386 36.7031C45.5386 38.876 44.2194 40.8503 42.5563 42.5134C40.8932 44.1764 38.9189 45.4956 36.746 46.3957C34.5731 47.2957 32.2442 47.759 29.8923 47.759L29.8923 59.6987Z" fill="white"/>
</svg>
