<svg width="60" height="60" viewBox="0 0 60 60" fill="none" xmlns="http://www.w3.org/2000/svg">
<circle cx="29.9355" cy="29.8494" r="27.3493" fill="black" stroke="white" stroke-width="5"/>
<path d="M29.9355 59.6987C33.8554 59.6987 37.7369 58.9266 41.3583 57.4265C44.9798 55.9265 48.2704 53.7278 51.0422 50.956C53.8139 48.1843 56.0126 44.8937 57.5127 41.2722C59.0128 37.6507 59.7848 33.7692 59.7848 29.8494C59.7848 25.9295 59.0128 22.048 57.5127 18.4265C56.0126 14.805 53.8139 11.5145 51.0422 8.7427C48.2704 5.97093 44.9798 3.77224 41.3583 2.27217C37.7369 0.772106 33.8554 3.03462e-05 29.9355 3.05176e-05L29.9355 29.8494L29.9355 59.6987Z" fill="white"/>
</svg>
