<svg width="60" height="60" viewBox="0 0 60 60" fill="none" xmlns="http://www.w3.org/2000/svg">
<circle cx="30.0652" cy="29.8493" r="29.8493" transform="rotate(-180 30.0652 29.8493)" fill="white"/>
<mask id="path-2-inside-1_107_42" fill="white">
<path d="M30.0652 8.65492e-06C37.9818 8.65492e-06 45.5741 3.14484 51.1719 8.74268C56.7697 14.3405 59.9146 21.9328 59.9146 29.8493C59.9146 37.7659 56.7697 45.3582 51.1719 50.956C45.574 56.5538 37.9818 59.6987 30.0652 59.6987V47.7589C34.8151 47.7589 39.3705 45.872 42.7292 42.5133C46.0879 39.1546 47.9748 34.5993 47.9748 29.8493C47.9748 25.0994 46.0879 20.544 42.7292 17.1853C39.3705 13.8266 34.8151 11.9397 30.0652 11.9397L30.0652 8.65492e-06Z"/>
</mask>
<path d="M30.0652 8.65492e-06C37.9818 8.65492e-06 45.5741 3.14484 51.1719 8.74268C56.7697 14.3405 59.9146 21.9328 59.9146 29.8493C59.9146 37.7659 56.7697 45.3582 51.1719 50.956C45.574 56.5538 37.9818 59.6987 30.0652 59.6987V47.7589C34.8151 47.7589 39.3705 45.872 42.7292 42.5133C46.0879 39.1546 47.9748 34.5993 47.9748 29.8493C47.9748 25.0994 46.0879 20.544 42.7292 17.1853C39.3705 13.8266 34.8151 11.9397 30.0652 11.9397L30.0652 8.65492e-06Z" fill="black" stroke="white" stroke-width="2" mask="url(#path-2-inside-1_107_42)"/>
</svg>
