<svg width="60" height="60" viewBox="0 0 60 60" fill="none" xmlns="http://www.w3.org/2000/svg">
<circle cx="30.1077" cy="29.8493" r="27.3493" transform="rotate(-180 30.1077 29.8493)" fill="black" stroke="white" stroke-width="5"/>
<path d="M30.1077 1.57716e-05C26.1878 1.57716e-05 22.3064 0.772092 18.6849 2.27216C15.0634 3.77223 11.7728 5.97091 9.00104 8.74268C6.22928 11.5144 4.03059 14.805 2.53052 18.4265C1.03045 22.048 0.258378 25.9295 0.258378 29.8493C0.258378 33.7692 1.03045 37.6507 2.53052 41.2722C4.03059 44.8937 6.22928 48.1842 9.00104 50.956C11.7728 53.7278 15.0634 55.9265 18.6849 57.4265C22.3064 58.9266 26.1878 59.6987 30.1077 59.6987L30.1077 29.8493L30.1077 1.57716e-05Z" fill="white"/>
</svg>
