<svg width="60" height="60" viewBox="0 0 60 60" fill="none" xmlns="http://www.w3.org/2000/svg">
<circle cx="30.1507" cy="29.8493" r="27.3493" transform="rotate(-180 30.1507 29.8493)" fill="black" stroke="white" stroke-width="5"/>
<path d="M30.1507 1.57716e-05C26.2308 1.57716e-05 22.3493 0.772092 18.7278 2.27216C15.1063 3.77223 11.8158 5.97091 9.04401 8.74268C6.27224 11.5144 4.07356 14.805 2.57349 18.4265C1.07342 22.048 0.301346 25.9295 0.301346 29.8493C0.301346 33.7692 1.07342 37.6507 2.57349 41.2722C4.07356 44.8937 6.27224 48.1842 9.04401 50.956C11.8158 53.7278 15.1063 55.9265 18.7278 57.4265C22.3493 58.9266 26.2308 59.6987 30.1507 59.6987L30.1507 47.7589C27.7988 47.7589 25.4699 47.2957 23.297 46.3957C21.1241 45.4956 19.1497 44.1764 17.4867 42.5133C15.8236 40.8503 14.5044 38.8759 13.6044 36.703C12.7043 34.5302 12.2411 32.2013 12.2411 29.8493C12.2411 27.4974 12.7043 25.1685 13.6044 22.9956C14.5044 20.8227 15.8236 18.8484 17.4867 17.1853C19.1497 15.5223 21.1241 14.2031 23.297 13.303C25.4699 12.403 27.7988 11.9397 30.1507 11.9397L30.1507 1.57716e-05Z" fill="white"/>
</svg>
