<svg width="35" height="35" viewBox="0 0 35 35" fill="none" xmlns="http://www.w3.org/2000/svg">
<g clip-path="url(#clip0)">
<path d="M30.108 20.6296L18.2284 32.5106V0.729189C18.2284 0.326484 17.902 0 17.4993 0C17.0966 0 16.7701 0.326484 16.7701 0.729189V32.5106L4.8905 20.6296C4.60086 20.3498 4.13923 20.3578 3.85944 20.6475C3.58655 20.9301 3.58655 21.378 3.85944 21.6606L16.9844 34.7856C17.2688 35.0707 17.7305 35.0712 18.0156 34.7869C18.0161 34.7864 18.0165 34.786 18.0169 34.7856L31.1419 21.6606C31.4217 21.3709 31.4137 20.9093 31.124 20.6295C30.8414 20.3565 30.3935 20.3565 30.1109 20.6295L30.108 20.6296Z" fill="#FFC107"/>
<path d="M17.4992 35C17.3057 35.0004 17.12 34.9238 16.983 34.7871L3.858 21.6621C3.5782 21.3724 3.58627 20.9108 3.87591 20.631C4.15851 20.3581 4.60647 20.3581 4.88899 20.631L17.4992 33.2398L30.1079 20.631C30.3976 20.3512 30.8592 20.3593 31.139 20.6489C31.412 20.9315 31.412 21.3795 31.139 21.6621L18.014 34.7871C17.8774 34.9234 17.6923 34.9999 17.4992 35Z" fill="white"/>
<path d="M17.4993 35C17.0965 35 16.7701 34.6735 16.7701 34.2708V0.729189C16.7701 0.326484 17.0965 0 17.4993 0C17.902 0 18.2284 0.326484 18.2284 0.729189V34.2709C18.2284 34.6735 17.902 35 17.4993 35Z" fill="white"/>
</g>
<defs>
<clipPath id="clip0">
<rect width="35" height="35" fill="white"/>
</clipPath>
</defs>
</svg>
