<svg width="35" height="40" viewBox="0 0 35 40" fill="none" xmlns="http://www.w3.org/2000/svg">
<g clip-path="url(#clip0)">
<path d="M16.5158 11.6539H13.5706C13.2874 11.6539 13.0579 11.9125 13.0579 12.2317C13.0579 12.5508 13.2874 12.8095 13.5706 12.8095H16.5158C16.799 12.8095 17.0285 12.5508 17.0285 12.2317C17.0285 11.9125 16.7989 11.6539 16.5158 11.6539Z" fill="white"/>
<path d="M17.5 17.2132C18.3254 17.2132 18.9969 16.4565 18.9969 15.5263V13.3409C18.9969 13.0479 19.2084 12.8096 19.4683 12.8096H21.4294C21.7126 12.8096 21.9421 12.551 21.9421 12.2318C21.9421 11.9126 21.7126 11.654 21.4294 11.654H19.4683C18.643 11.654 17.9715 12.4107 17.9715 13.3409V15.5263C17.9715 15.8193 17.76 16.0576 17.5 16.0576C17.2168 16.0576 16.9873 16.3162 16.9873 16.6354C16.9873 16.9546 17.2168 17.2132 17.5 17.2132Z" fill="white"/>
<path d="M17.5248 29.3594C18.2631 29.3594 18.8834 28.9312 19.3189 28.121C19.6135 27.573 19.719 27.0402 19.7301 26.9813C19.7887 26.669 19.6116 26.3624 19.3347 26.2963C19.0578 26.2303 18.7856 26.4297 18.7269 26.742C18.7245 26.7545 18.4318 28.2038 17.5248 28.2038C16.6178 28.2038 16.3252 26.7545 16.3228 26.742C16.2642 26.4297 15.9919 26.2302 15.715 26.2963C15.438 26.3623 15.2609 26.669 15.3196 26.9813C15.3306 27.0402 15.4362 27.573 15.7308 28.121C16.1663 28.9312 16.7866 29.3594 17.5248 29.3594Z" fill="white"/>
<path d="M29.3919 11.0576V16.5782C29.3919 17.4278 30.0052 18.119 30.7591 18.119C31.5129 18.119 32.1262 17.4278 32.1262 16.5782V11.0576C32.1262 10.208 31.5129 9.51678 30.7591 9.51678C30.0052 9.51678 29.3919 10.208 29.3919 11.0576ZM31.1008 11.0576V16.5782C31.1008 16.7906 30.9475 16.9634 30.7591 16.9634C30.5706 16.9634 30.4173 16.7906 30.4173 16.5782V11.0576C30.4173 10.8452 30.5706 10.6724 30.7591 10.6724C30.9475 10.6724 31.1008 10.8453 31.1008 11.0576Z" fill="#60097E"/>
<path d="M6.25607 1.79477V2.93172C6.25607 3.78132 6.86939 4.47252 7.62326 4.47252C8.37713 4.47252 8.99045 3.78132 8.99045 2.93172V1.79477C8.99045 0.94517 8.37713 0.253967 7.62326 0.253967C6.86939 0.253967 6.25607 0.94517 6.25607 1.79477ZM7.96506 1.79477V2.93172C7.96506 3.14412 7.81173 3.31692 7.62326 3.31692C7.43479 3.31692 7.28146 3.14412 7.28146 2.93172V1.79477C7.28146 1.58237 7.43479 1.40957 7.62326 1.40957C7.81173 1.40957 7.96506 1.58237 7.96506 1.79477Z" fill="#60097E"/>
<path d="M25.1771 1.79477V2.27627C25.1771 3.12586 25.7904 3.81706 26.5442 3.81706C27.2981 3.81706 27.9114 3.12586 27.9114 2.27627V1.79477C27.9114 0.94517 27.2981 0.253967 26.5442 0.253967C25.7904 0.253967 25.1771 0.94517 25.1771 1.79477ZM26.886 1.79477V2.27627C26.886 2.48866 26.7327 2.66146 26.5442 2.66146C26.3558 2.66146 26.2024 2.48866 26.2024 2.27627V1.79477C26.2024 1.58237 26.3558 1.40957 26.5442 1.40957C26.7327 1.40957 26.886 1.58237 26.886 1.79477Z" fill="#60097E"/>
<path d="M2.8348 6.56576V11.2409C2.8348 12.0905 3.44812 12.7817 4.20199 12.7817C4.95586 12.7817 5.56918 12.0905 5.56918 11.2409V6.56576C5.56918 5.71617 4.95586 5.02496 4.20199 5.02496C3.44812 5.02496 2.8348 5.71609 2.8348 6.56576ZM4.54379 6.56576V11.2409C4.54379 11.4533 4.39046 11.6261 4.20199 11.6261C4.01352 11.6261 3.86019 11.4533 3.86019 11.2409V6.56576C3.86019 6.35336 4.01352 6.18056 4.20199 6.18056C4.39046 6.18056 4.54379 6.35336 4.54379 6.56576Z" fill="#60097E"/>
<path d="M32.1262 20.4303C32.1262 19.5807 31.5129 18.8895 30.759 18.8895C30.0052 18.8895 29.3918 19.5807 29.3918 20.4303V22.7857C28.5806 22.3788 27.6999 22.1668 26.8029 22.1668H24.9449C24.6893 22.1668 24.5366 21.8444 24.6793 21.6127C25.1114 20.9108 25.4412 20.1647 25.6594 19.3953C25.7269 19.157 25.8727 18.9555 26.0594 18.8422C27.7155 17.8374 28.7442 15.9002 28.7442 13.7869V13.6193C28.7442 12.6322 28.4497 11.6748 27.9113 10.899V6.12826C27.9113 5.27867 27.298 4.58746 26.5441 4.58746C26.0016 4.58746 25.532 4.94531 25.3113 5.46248C23.7004 2.15 20.6384 0.253967 17.5 0.253967C13.6816 0.253967 10.1851 3.01724 8.9904 7.31699V7.16892C8.9904 6.31932 8.37708 5.62812 7.62322 5.62812C6.86935 5.62812 6.25603 6.31932 6.25603 7.16892V13.8191C6.25603 15.8257 7.23938 17.81 8.94064 18.8422C9.12726 18.9555 9.27307 19.157 9.34068 19.3952C9.55895 20.1649 9.88871 20.9111 10.3207 21.6126C10.4631 21.8439 10.311 22.1667 10.0551 22.1667H8.19702C7.28511 22.1667 6.39104 22.3857 5.56915 22.8056V15.0929C5.56915 14.2433 4.95583 13.5521 4.20197 13.5521C3.4481 13.5521 2.83478 14.2433 2.83478 15.0929V25.4646C2.17128 26.6244 1.82142 27.9645 1.82142 29.352V31.7523C1.82142 32.0715 2.0509 32.3301 2.33411 32.3301C2.61733 32.3301 2.84681 32.0715 2.84681 31.7523V29.352C2.84681 28.1366 3.16653 26.965 3.7713 25.9638C3.8292 25.868 3.86017 25.7546 3.86017 25.6386V15.0929C3.86017 14.8805 4.0135 14.7077 4.20197 14.7077C4.39043 14.7077 4.54376 14.8805 4.54376 15.0929V23.7737C4.54376 24.2289 4.9907 24.5055 5.33154 24.2613C6.18869 23.647 7.17956 23.3223 8.19702 23.3223H10.0551C11.1341 23.3223 11.7787 21.9536 11.1631 20.9537C10.7891 20.3464 10.5046 19.7037 10.3174 19.0435C10.1677 18.5152 9.85139 18.0822 9.42681 17.8247C8.11492 17.0287 7.29297 15.495 7.28176 13.8264C7.28176 13.7626 7.28142 14.5897 7.28142 7.16892C7.28142 6.95652 7.43475 6.78372 7.62322 6.78372C7.81168 6.78372 7.96501 6.95652 7.96501 7.16892V10.2892C7.96501 10.7318 8.39055 11.015 8.73959 10.7859C9.25659 10.4508 9.59579 9.87548 9.67003 9.20709C10.1719 4.69609 13.5694 1.40957 17.5 1.40957C21.0946 1.40957 24.3473 4.18038 25.1899 8.3249C25.2482 8.61157 25.4888 8.80355 25.7473 8.76996C26.0065 8.73691 26.2023 8.48984 26.2023 8.19586V6.12826C26.2023 5.91586 26.3557 5.74306 26.5441 5.74306C26.7326 5.74306 26.8859 5.91586 26.8859 6.12826V11.106C26.8859 11.2449 26.9304 11.3793 27.0112 11.4843C27.4675 12.0778 27.7188 12.8361 27.7188 13.6192V13.7868C27.7188 15.4744 26.8967 17.0217 25.5732 17.8247C25.1488 18.0822 24.8326 18.515 24.6826 19.0433C24.4955 19.7034 24.2109 20.3462 23.8369 20.9537C23.222 21.952 23.8647 23.3223 24.9449 23.3223H26.8029C27.8058 23.3223 28.7844 23.6381 29.6328 24.2356C29.9736 24.4756 30.4172 24.1991 30.4172 23.7456V20.4303C30.4172 20.2179 30.5706 20.0451 30.759 20.0451C30.9475 20.0451 31.1008 20.2179 31.1008 20.4303C31.1008 25.6297 31.1064 25.3111 31.0891 25.3866C31.0509 25.5518 31.0795 25.7275 31.1672 25.8667C31.8123 26.8904 32.1532 28.0957 32.1532 29.3521V38.5428H31.1278V33.9857C31.1278 33.6666 30.8984 33.4079 30.6151 33.4079C30.3319 33.4079 30.1024 33.6666 30.1024 33.9857V38.5428H26.5424V32.4004C26.5424 32.0812 26.3129 31.8226 26.0297 31.8226C25.7464 31.8226 25.517 32.0812 25.517 32.4004V38.5428H18.0127V33.4036C18.0127 32.5563 18.6243 31.8671 19.376 31.8671H23.5837C23.8669 31.8671 24.0964 31.6085 24.0964 31.2893C24.0964 30.9702 23.8669 30.7115 23.5837 30.7115H19.376C18.616 30.7115 17.9378 31.1136 17.5 31.739C17.0622 31.1136 16.3839 30.7115 15.624 30.7115H11.4163C11.1331 30.7115 10.9036 30.9702 10.9036 31.2893C10.9036 31.6085 11.1331 31.8671 11.4163 31.8671H15.624C16.3757 31.8671 16.9873 32.5563 16.9873 33.4036V38.5428H9.48307V32.4004C9.48307 32.0812 9.25359 31.8226 8.97037 31.8226C8.68716 31.8226 8.45768 32.0812 8.45768 32.4004V38.5428H4.89759V29.352C4.89759 27.3017 6.37771 25.6335 8.19709 25.6335H13.719C14.3025 25.6335 14.7772 25.0986 14.7772 24.441V22.9924C15.731 23.5723 16.7196 23.9174 17.5 23.9174C18.2781 23.9174 19.2714 23.5652 20.2227 22.9881V24.4409C20.2227 25.0985 20.6974 25.6335 21.2809 25.6335H26.8029C28.6222 25.6335 30.1024 27.3015 30.1024 29.3519V31.2892C30.1024 31.6084 30.3319 31.867 30.6151 31.867C30.8983 31.867 31.1278 31.6084 31.1278 31.2892V29.3519C31.1278 26.6643 29.1877 24.4779 26.8029 24.4779H21.2809C21.2628 24.4779 21.2481 24.4612 21.2481 24.4409V22.2621C21.4261 22.1162 21.5984 21.9632 21.7631 21.804C21.9781 21.5963 22.003 21.2315 21.8187 20.9893C21.6345 20.747 21.3108 20.719 21.0958 20.9266C20.749 21.2617 20.4549 21.4796 20.432 21.4987C19.349 22.3301 18.1977 22.7617 17.5001 22.7617C16.4881 22.7617 15.1032 21.9708 14.2446 21.2361C13.4984 20.5974 12.2284 19.2494 12.1073 17.3967C11.5652 9.101 12.3296 20.7977 11.6754 10.7862C11.4271 6.98841 14.0833 3.72076 17.5 3.72076C20.8791 3.72076 23.5756 6.94619 23.3247 10.7863C22.6524 21.0725 23.6515 5.78644 22.8927 17.3968C22.8579 17.9292 22.7239 18.461 22.4946 18.9777C22.3679 19.263 22.4704 19.6102 22.7237 19.7529C22.9769 19.8958 23.285 19.7802 23.4116 19.4948C23.7011 18.8426 23.8707 18.1653 23.9153 17.4816L23.9338 17.1986C25.4792 17.0385 26.6935 15.5695 26.6935 13.7868V13.6192C26.6935 12.4559 25.8537 11.5094 24.8214 11.5094H24.3056L24.3473 10.8711C24.6401 6.39058 21.4864 2.56517 17.5 2.56517C13.5135 2.56517 10.3598 6.39074 10.6527 10.8711L10.6944 11.5094H10.1785C9.14626 11.5094 8.30647 12.4559 8.30647 13.6192V13.7868C8.30647 15.5695 9.52074 17.0385 11.0661 17.1986L11.0847 17.4816C11.2128 19.4431 12.3475 21.1066 13.7518 22.2634V24.441C13.7518 24.4614 13.7371 24.4779 13.719 24.4779H8.19709C5.81231 24.4779 3.8722 26.6644 3.8722 29.352V38.5428H2.84681V34.4487C2.84681 34.1295 2.61733 33.8709 2.33411 33.8709C2.0509 33.8709 1.82142 34.1295 1.82142 34.4487V39.1206C1.82142 39.4398 2.0509 39.6984 2.33411 39.6984H32.6659C32.9491 39.6984 33.1786 39.4398 33.1786 39.1206V29.3521C33.1786 27.9343 32.8143 26.571 32.123 25.3943C32.1277 25.3183 32.1262 25.6406 32.1262 20.4303ZM24.8214 12.6651C25.2882 12.6651 25.6681 13.0932 25.6681 13.6193V13.7869C25.6681 14.9015 24.9518 15.8311 24.0107 16.0218L24.2301 12.6652H24.8214V12.6651ZM9.33193 13.7868V13.6192C9.33193 13.0931 9.71173 12.665 10.1786 12.665H10.7699L10.9893 16.0217C10.0482 15.8311 9.33193 14.9014 9.33193 13.7868Z" fill="white"/>
</g>
<defs>
<clipPath id="clip0">
<rect width="35" height="39.4444" fill="white" transform="translate(0 0.253967)"/>
</clipPath>
</defs>
</svg>
