<svg width="35" height="40" viewBox="0 0 35 40" fill="none" xmlns="http://www.w3.org/2000/svg">
<g clip-path="url(#clip0)">
<path d="M28.7118 1.00282C28.8305 0.802259 28.8305 0.534866 28.7118 0.334301C28.5931 0.133736 28.4152 0 28.1779 0H6.822C6.58473 0 6.40676 0.133736 6.2881 0.334301C6.16943 0.534866 6.16943 0.802259 6.2881 1.00282C6.3474 1.06965 8.00846 4.21186 8.00846 9.35972V13.9727C8.00846 14.1733 7.77119 18.1177 10.144 21.0593C11.369 22.5385 13.0463 23.4715 15.1271 23.8598V26.7419C14.1186 26.7419 13.3474 27.611 13.3474 28.7476C13.3474 29.8812 14.1147 30.7485 15.1193 30.753C15.0134 35.1777 13.8377 35.3055 12.9321 35.4331H12.7542C12.7316 35.4331 12.711 35.4331 12.6949 35.4331C12.6923 35.4335 12.6899 35.4343 12.6874 35.4349C11.712 35.4724 10.9746 36.3275 10.9746 37.4387C10.9746 38.5753 11.7457 39.4444 12.7542 39.4444H22.2457C23.2542 39.4444 24.0254 38.5753 24.0254 37.4387C24.0254 36.3271 23.2875 35.4718 22.3116 35.4349C22.3094 35.4343 22.3073 35.4336 22.3051 35.4331C22.2861 35.4331 22.2668 35.4331 22.2458 35.4331H22.0678C21.1622 35.3055 19.9867 35.1777 19.8807 30.753C20.8853 30.7485 21.6525 29.8812 21.6525 28.7476C21.6525 27.611 20.8814 26.7419 19.8729 26.7419V23.8598C21.9537 23.4715 23.631 22.5385 24.8559 21.0593C27.2288 18.1177 26.9915 14.1733 26.9915 14.0395V9.35972C26.9915 4.21186 28.7118 1.00282 28.7118 1.00282ZM22.2457 36.7702C22.6017 36.7702 22.8389 37.0376 22.8389 37.4387C22.8389 37.8398 22.6017 38.1073 22.2457 38.1073H12.7542C12.3983 38.1073 12.161 37.8399 12.161 37.4388C12.161 37.0377 12.3983 36.7703 12.7542 36.7703H22.2457V36.7702ZM15.3051 35.4331C15.839 34.5641 16.2542 33.1601 16.3136 30.7533H18.6864C18.7457 33.1601 19.1016 34.5641 19.6949 35.4331H15.3051ZM20.4661 28.7476C20.4661 29.1487 20.2288 29.4161 19.8729 29.4161H19.2797H15.7204H15.1271C14.7712 29.4161 14.5339 29.1487 14.5339 28.7476C14.5339 28.3465 14.7712 28.0791 15.1271 28.0791H19.8729C20.2288 28.0791 20.4661 28.3465 20.4661 28.7476ZM18.6864 24.0678V26.7419H16.3136V24.0678H18.6864ZM23.9661 20.1233C22.5424 21.8616 20.4068 22.7307 17.5 22.7307C14.6526 22.7307 12.4577 21.8616 11.0339 20.1233C8.95766 17.6497 9.19499 14.1064 9.19499 14.0395V9.35972C9.19499 5.54899 8.36446 2.74108 7.77126 1.33712H27.2288C26.6356 2.74108 25.8051 5.54899 25.8051 9.35972V14.1064C25.8051 14.1064 26.0423 17.5829 23.9661 20.1233Z" fill="#C5BF46"/>
<path d="M11.5678 10.6968C11.9237 10.6968 12.161 10.4294 12.161 10.0283C12.161 7.62148 11.983 5.48209 11.5678 3.81074C11.4491 3.47644 11.1525 3.27588 10.7966 3.34278C10.5 3.47652 10.322 3.81074 10.3814 4.21187C10.7966 5.74956 10.9746 7.75521 10.9746 10.0283C10.9746 10.4294 11.2118 10.6968 11.5678 10.6968Z" fill="#5091F2"/>
<path d="M18.0932 19.388C15.8983 19.388 14.2966 18.7863 13.3474 17.6497C12.0424 16.0452 12.161 13.4378 12.161 13.4378C12.2203 13.0367 11.983 12.7024 11.6271 12.7024C11.2712 12.6356 10.9745 12.903 10.9745 13.3041C10.9745 13.3709 10.7966 16.5131 12.5169 18.5188C13.7034 19.9896 15.5423 20.725 18.0932 20.725C18.4491 20.725 18.6864 20.4576 18.6864 20.0565C18.6864 19.6554 18.4492 19.388 18.0932 19.388Z" fill="#5091F2"/>
</g>
<defs>
<clipPath id="clip0">
<rect width="35" height="39.4444" fill="white"/>
</clipPath>
</defs>
</svg>
