<svg width="35" height="40" viewBox="0 0 35 40" fill="none" xmlns="http://www.w3.org/2000/svg">
<path d="M28.8514 31.0429H10.4054V29.9768H28.8514C29.9622 29.9767 31.0289 29.4869 31.8235 28.6121C32.6181 27.7373 33.0775 26.547 33.1036 25.2955C33.1298 24.044 32.7205 22.8306 31.9633 21.9147C31.2061 20.9988 30.161 20.453 29.0514 20.3939C28.9812 20.3902 28.9125 20.3689 28.8505 20.3315C28.7885 20.2941 28.7346 20.2415 28.6929 20.1777C28.6511 20.1139 28.6226 20.0403 28.6092 19.9625C28.5959 19.8846 28.5982 19.8044 28.6158 19.7277C29.0615 17.8043 28.8547 15.7628 28.0358 14.0021C27.2169 12.2415 25.8449 10.8883 24.1878 10.207C22.5308 9.52579 20.7079 9.56545 19.0754 10.3183C17.4429 11.0711 16.1183 12.483 15.3603 14.2779C15.326 14.3595 15.274 14.4299 15.209 14.4825C15.144 14.5352 15.0682 14.5684 14.9887 14.5791C14.9092 14.5897 14.8286 14.5775 14.7544 14.5435C14.6803 14.5094 14.615 14.4547 14.5648 14.3845C13.8584 13.3886 12.8585 12.7114 11.7467 12.4758C10.6349 12.2402 9.48495 12.462 8.5059 13.1007C7.52685 13.7395 6.78364 14.753 6.41132 15.9569C6.03899 17.1608 6.06227 18.4753 6.47692 19.6616C6.50471 19.7414 6.51501 19.8276 6.50694 19.9128C6.49887 19.9981 6.47267 20.0799 6.43057 20.1513C6.38847 20.2227 6.3317 20.2816 6.26509 20.323C6.19848 20.3644 6.12399 20.3871 6.04794 20.3891C4.94685 20.4487 3.90921 20.9873 3.15338 21.8917C2.39756 22.796 1.98249 23.9955 1.99555 25.2377C2.0086 26.48 2.44875 27.6681 3.22337 28.552C3.99798 29.4359 5.04666 29.9467 6.14868 29.9768H8.92739V31.0429H6.14868C4.83421 31.0431 3.56842 30.4824 2.60595 29.4734C1.64349 28.4645 1.05577 27.0822 0.961016 25.6046C0.866265 24.1271 1.27152 22.6639 2.09525 21.5095C2.91898 20.3551 4.10006 19.595 5.40091 19.3822C5.26941 18.8396 5.20276 18.2796 5.20273 17.7171C5.20372 16.4606 5.53306 15.2322 6.14964 14.1854C6.76622 13.1385 7.64273 12.3195 8.66977 11.8305C9.6968 11.3416 10.8289 11.2043 11.9247 11.436C13.0205 11.6676 14.0315 12.2578 14.8315 13.133C15.7238 11.4174 17.0924 10.0805 18.726 9.32888C20.3597 8.57722 22.1674 8.45254 23.8702 8.9741C25.5729 9.49566 27.076 10.6344 28.1472 12.2146C29.2185 13.7948 29.7984 15.7285 29.7973 17.7171C29.7962 18.2792 29.7476 18.84 29.6521 19.3918C30.9468 19.6182 32.1179 20.3871 32.9313 21.5446C33.7447 22.7022 34.1404 24.1631 34.0392 25.6353C33.938 27.1074 33.3475 28.4822 32.3856 29.4848C31.4238 30.4874 30.1616 31.0439 28.8514 31.0429Z" fill="url(#paint0_linear)"/>
<path d="M26.9595 17.7171H26.0135C26.0123 16.4452 25.5634 15.2258 24.7654 14.3265C23.9673 13.4271 22.8853 12.9212 21.7567 12.9198V11.8537C23.1361 11.8554 24.4586 12.4737 25.434 13.573C26.4093 14.6722 26.958 16.1626 26.9595 17.7171Z" fill="#F3F3F3"/>
<defs>
<linearGradient id="paint0_linear" x1="17.5011" y1="8.65712" x2="17.5011" y2="31.0429" gradientUnits="userSpaceOnUse">
<stop stop-color="#0F709A"/>
<stop offset="1" stop-color="#0D3445"/>
</linearGradient>
</defs>
</svg>
