<svg width="35" height="40" viewBox="0 0 35 40" fill="none" xmlns="http://www.w3.org/2000/svg">
<path d="M18.1622 38.7593C16.9104 38.7646 15.6676 38.5208 14.4909 38.0392C10.273 36.2967 7.45926 33.5526 6.12879 29.8838C3.94507 23.8605 6.53791 17.5835 6.64906 17.3197C6.69039 17.2215 6.75736 17.1399 6.841 17.0858C6.92464 17.0317 7.02094 17.0077 7.11701 17.0171C7.21308 17.0264 7.30433 17.0686 7.37851 17.138C7.4527 17.2075 7.50629 17.3008 7.5321 17.4055C7.91237 18.6236 8.58337 19.7 9.47129 20.5163C10.5539 14.3928 15.2936 10.6871 15.5041 10.5246C18.5623 7.76557 16.0645 2.28386 16.039 2.22896C15.9886 2.12034 15.9729 1.99545 15.9947 1.87533C16.0164 1.75522 16.0742 1.64722 16.1584 1.56953C16.2425 1.49185 16.3479 1.44923 16.4566 1.44886C16.5654 1.44848 16.671 1.49037 16.7555 1.56747C25.1778 9.26979 24.6934 17.0276 24.0138 20.2151C24.6464 19.6569 25.1379 18.9213 25.439 18.0818C25.7402 17.2424 25.8404 16.3285 25.7297 15.4317C25.7149 15.3124 25.7363 15.191 25.7905 15.0873C25.8447 14.9835 25.9285 14.9035 26.0282 14.8602C26.1279 14.817 26.2376 14.813 26.3396 14.849C26.4415 14.885 26.5296 14.9589 26.5896 15.0585C27.5036 16.6639 28.2457 18.3857 28.8003 20.1879C29.5318 22.5483 29.7118 25.0812 29.3232 27.5428C28.9345 30.0044 27.9902 32.3118 26.5811 34.2429L26.4799 34.382C25.4668 35.7592 24.1953 36.8661 22.7571 37.623C21.3188 38.3799 19.7495 38.768 18.1622 38.7593ZM14.8164 37.0381C15.8887 37.4767 17.0214 37.6985 18.1622 37.6932C19.6097 37.7014 21.0408 37.3478 22.3526 36.658C23.6644 35.9683 24.8242 34.9594 25.7487 33.704L25.8432 33.5708C27.1502 31.7808 28.0264 29.642 28.3875 27.3599C28.7487 25.0779 28.5827 22.7295 27.9054 20.5408C27.5541 19.4143 27.1291 18.3188 26.6341 17.2632C26.1138 20.4704 23.3909 21.9618 23.3578 21.9794C23.2696 22.0264 23.1708 22.0416 23.0747 22.0229C22.9787 22.0041 22.8901 21.9524 22.8211 21.8747C22.7521 21.797 22.7062 21.6972 22.6895 21.589C22.6727 21.4807 22.6861 21.3693 22.7278 21.27C22.8772 20.9086 26.1332 12.6881 17.5629 3.76463C18.1097 5.90049 18.4365 9.24101 16.0631 11.3806C15.9841 11.4435 10.9612 15.3815 10.2753 21.5615C10.2651 21.6519 10.2344 21.7378 10.1863 21.8111C10.1382 21.8843 10.0742 21.9424 10.0005 21.9798C9.92673 22.0172 9.84573 22.0327 9.76517 22.0248C9.68462 22.0169 9.60721 21.9859 9.54034 21.9347C8.55174 21.1446 7.71901 20.1325 7.0946 18.9619C6.47358 21.0093 5.51439 25.3802 7.00662 29.4845C8.23352 32.8613 10.8609 35.4012 14.8159 37.0355L14.8164 37.0381Z" fill="#A51010"/>
<path d="M16.1468 38.5419C16.0354 38.5419 15.9275 38.4975 15.8422 38.4166C9.81513 32.6908 14.0615 25.3685 14.105 25.2955C14.16 25.2028 14.2394 25.132 14.3321 25.0929C14.4247 25.0538 14.5258 25.0484 14.6213 25.0774C14.7168 25.1065 14.8018 25.1686 14.8644 25.2549C14.9269 25.3413 14.9639 25.4475 14.9701 25.5588C14.982 26.3766 15.2424 27.1651 15.7079 27.7927C15.4626 25.7822 15.7233 23.7344 16.4605 21.8827C17.1976 20.031 18.3815 18.45 19.8771 17.3197C19.9656 17.2617 20.0683 17.2376 20.1699 17.251C20.2715 17.2644 20.3665 17.3145 20.4407 17.3939C20.5149 17.4733 20.5642 17.5777 20.5813 17.6913C20.5984 17.805 20.5823 17.9219 20.5355 18.0244C20.2746 18.5796 20.1434 19.2005 20.1543 19.8287C20.1788 20.5596 20.3846 21.2682 20.7484 21.8739L20.9376 22.1996C21.5643 23.2482 22.2433 24.2558 22.9713 25.2177C23.538 25.9902 23.9913 26.8599 24.3141 27.7938C26.6846 33.3016 22.6114 37.6432 22.5717 37.6869C22.4793 37.7801 22.3581 37.8287 22.2343 37.8222C22.1104 37.8158 21.9938 37.7547 21.9094 37.6523C21.8251 37.5499 21.7798 37.4142 21.7834 37.2745C21.7869 37.1348 21.839 37.0023 21.9284 36.9055C22.0765 36.7498 25.5348 33.0356 23.4528 28.2357C23.4447 28.2168 23.4376 28.1974 23.4315 28.1776C23.1449 27.352 22.7439 26.5829 22.2434 25.8989C21.492 24.906 20.7914 23.8658 20.1448 22.7833L19.9557 22.4576C19.4949 21.6847 19.2357 20.7817 19.2074 19.8511C19.2037 19.6433 19.2119 19.4356 19.232 19.229C17.8699 20.6805 15.8739 23.7705 16.8151 28.8236C16.8321 28.9142 16.8278 29.0083 16.8026 29.0964C16.7775 29.1846 16.7324 29.2639 16.6719 29.3265C16.6113 29.389 16.5373 29.4327 16.4572 29.4533C16.377 29.4738 16.2936 29.4704 16.2149 29.4435C15.7635 29.2488 15.3567 28.9424 15.0243 28.547C14.692 28.1515 14.4426 27.677 14.2947 27.1584C13.4556 29.3119 12.4501 33.8005 16.4509 37.6027C16.5252 37.6731 16.5784 37.7676 16.6034 37.8732C16.6283 37.9789 16.6239 38.0907 16.5906 38.1934C16.5573 38.2961 16.4967 38.3848 16.4172 38.4474C16.3376 38.51 16.2429 38.5436 16.1459 38.5435L16.1468 38.5419Z" fill="#C05E02"/>
</svg>
