<svg width="35" height="40" viewBox="0 0 35 40" fill="none" xmlns="http://www.w3.org/2000/svg">
<g clip-path="url(#clip0)">
<path d="M17.5 39.5714C27.1649 39.5714 35 30.7414 35 19.8492C35 8.95704 27.1649 0.126984 17.5 0.126984C7.83512 0.126984 0 8.95704 0 19.8492C0.0108236 30.7362 7.83968 39.5592 17.5 39.5714ZM17.5 1.4418C26.5206 1.4418 33.8333 9.68314 33.8333 19.8492C33.8333 30.0153 26.5206 38.2566 17.5 38.2566C8.47941 38.2566 1.16667 30.0153 1.16667 19.8492C1.17692 9.68796 8.48368 1.45335 17.5 1.4418Z" fill="#DBC062"/>
<path d="M17.5 34.3122C24.5877 34.3122 30.3333 27.837 30.3333 19.8492C30.3333 11.8615 24.5877 5.38625 17.5 5.38625C10.4123 5.38625 4.66667 11.8615 4.66667 19.8492C4.67465 27.8331 10.4157 34.3032 17.5 34.3122ZM17.5 6.70106C23.9434 6.70106 29.1667 12.5876 29.1667 19.8492C29.1667 27.1109 23.9434 32.9974 17.5 32.9974C11.0566 32.9974 5.83334 27.1109 5.83334 19.8492C5.84074 12.5911 11.0597 6.70941 17.5 6.70106Z" fill="#DBC062"/>
<path d="M8.2541 25.4497C10.0821 29.2879 13.6346 31.6829 17.5 31.6829C21.3654 31.6829 24.9178 29.2879 26.7459 25.4497C26.7493 25.4429 26.7547 25.4385 26.7576 25.4327C26.767 25.4134 26.771 25.3925 26.7784 25.3726C28.4067 21.92 28.4067 17.781 26.7784 14.3283C26.771 14.3084 26.767 14.2876 26.7576 14.2686C26.7576 14.2625 26.7493 14.258 26.7459 14.2513C24.9178 10.4131 21.3654 8.01844 17.5 8.01844C13.6346 8.01844 10.0821 10.4131 8.2541 14.2513C8.25069 14.258 8.24527 14.2625 8.24243 14.2686C8.23303 14.2876 8.22904 14.3084 8.22163 14.3277C6.59269 17.7816 6.59269 21.9219 8.22163 25.3762C8.22904 25.3951 8.23303 25.416 8.24243 25.4352C8.24527 25.4372 8.25069 25.4429 8.2541 25.4497ZM9.78963 25.7659H14.0199L16.4302 30.2936C13.7385 29.9414 11.3155 28.2893 9.78963 25.7659ZM14.6802 15.2474H20.3198L22.7699 19.8492L20.3198 24.4511H14.6802L12.2301 19.8492L14.6802 15.2474ZM11.5499 18.5713L9.7808 15.2474H13.3198L11.5499 18.5713ZM19.6197 13.9325H15.3803L17.5 9.95118L19.6197 13.9325ZM21.6802 15.2474H25.2192L23.4501 18.5713L21.6802 15.2474ZM23.4501 21.1271L25.2192 24.4511H21.6802L23.4501 21.1271ZM15.3803 25.7659H19.6197L17.5 29.7472L15.3803 25.7659ZM13.3198 24.4511H9.7808L11.5499 21.1271L13.3198 24.4511ZM18.5698 30.2936L20.9801 25.7659H25.2104C23.6845 28.2893 21.2615 29.9414 18.5698 30.2936ZM26.1782 23.6957L24.1303 19.8492L26.1782 16.0027C27.0515 18.4721 27.0515 21.225 26.1782 23.6945V23.6957ZM25.2104 13.9325H20.9801L18.5698 9.40484C21.2615 9.75697 23.6845 11.4092 25.2104 13.9325ZM16.4302 9.40484L14.0199 13.9325H9.78963C11.3155 11.4092 13.7385 9.75697 16.4302 9.40484ZM8.82177 16.0027L10.8697 19.8492L8.82177 23.6957C7.94848 21.2263 7.94848 18.4734 8.82177 16.004V16.0027Z" fill="#DBC062"/>
<path d="M17.5 36.9418V35.627C12.8886 35.7746 8.55547 33.1466 6.12501 28.7274C4.87887 26.5838 3.98621 24.2042 3.49004 21.703L2.34331 21.9392C2.36723 22.0891 4.90878 36.9418 17.5 36.9418Z" fill="#DBC062"/>
<path d="M16.9167 2.75661H18.0833V4.07143H16.9167V2.75661Z" fill="#DBC062"/>
<path d="M28.6813 10.3531L29.652 9.62312C26.0389 3.51514 19.5767 2.78743 19.303 2.75661L19.197 4.07143C19.2588 4.07464 25.375 4.76222 28.6813 10.3531Z" fill="#DBC062"/>
</g>
<defs>
<clipPath id="clip0">
<rect width="35" height="39.4444" fill="white" transform="translate(0 0.126984)"/>
</clipPath>
</defs>
</svg>
