<svg width="60" height="60" viewBox="0 0 60 60" fill="none" xmlns="http://www.w3.org/2000/svg">
<circle cx="29.9785" cy="29.8494" r="29.8493" fill="white"/>
<mask id="path-2-inside-1_107_38" fill="white">
<path d="M29.9785 59.6987C22.0619 59.6987 14.4696 56.5539 8.87181 50.956C3.27398 45.3582 0.12915 37.7659 0.12915 29.8494C0.129151 21.9328 3.27398 14.3405 8.87182 8.7427C14.4697 3.14486 22.0619 3.04232e-05 29.9785 3.05176e-05V11.9398C25.2286 11.9398 20.6732 13.8267 17.3145 17.1854C13.9558 20.5441 12.0689 25.0994 12.0689 29.8494C12.0689 34.5993 13.9558 39.1547 17.3145 42.5134C20.6732 45.8721 25.2286 47.759 29.9785 47.759L29.9785 59.6987Z"/>
</mask>
<path d="M29.9785 59.6987C22.0619 59.6987 14.4696 56.5539 8.87181 50.956C3.27398 45.3582 0.12915 37.7659 0.12915 29.8494C0.129151 21.9328 3.27398 14.3405 8.87182 8.7427C14.4697 3.14486 22.0619 3.04232e-05 29.9785 3.05176e-05V11.9398C25.2286 11.9398 20.6732 13.8267 17.3145 17.1854C13.9558 20.5441 12.0689 25.0994 12.0689 29.8494C12.0689 34.5993 13.9558 39.1547 17.3145 42.5134C20.6732 45.8721 25.2286 47.759 29.9785 47.759L29.9785 59.6987Z" fill="black" stroke="white" stroke-width="2" mask="url(#path-2-inside-1_107_38)"/>
</svg>
