<svg width="35" height="40" viewBox="0 0 35 40" fill="none" xmlns="http://www.w3.org/2000/svg">
<g clip-path="url(#clip0)">
<path d="M22.8644 12.2146C22.0475 10.4693 21.2029 8.66445 20.4571 6.88498C20.3361 6.59639 20.0305 6.4729 19.7745 6.60933C19.5184 6.74562 19.4089 7.08999 19.5298 7.3785C20.2853 9.18093 21.1353 10.9972 21.9574 12.7537C24.4739 18.1306 26.8508 23.2092 26.8508 28.1309C26.8508 30.9519 25.8746 33.6025 24.1019 35.5944C22.3362 37.5784 19.9928 38.6698 17.5001 38.6698C17.4906 38.6698 17.481 38.6697 17.4715 38.6697C14.996 38.6615 12.6555 37.5441 10.8813 35.5234C9.1007 33.4954 8.13048 30.834 8.14941 28.0293C8.18229 23.1382 10.5431 18.0941 13.0424 12.7538C14.7514 9.10235 16.5184 5.32692 17.5 1.55658C17.7751 2.61319 18.1181 3.70153 18.5484 4.8831C18.6559 5.17831 18.9554 5.31914 19.2174 5.19827C19.4793 5.07708 19.6046 4.73957 19.497 4.44435C19.0775 3.29245 18.7443 2.23454 18.4785 1.21029C18.3496 0.714226 17.9561 0.380874 17.4991 0.380951C17.0431 0.380951 16.6503 0.713533 16.5219 1.20852C15.5706 4.87493 13.8243 8.60621 12.1355 12.2147C9.6888 17.4423 7.15888 22.848 7.12402 28.0206C7.10303 31.1349 8.1786 34.0881 10.1525 36.3363C12.1199 38.577 14.7182 39.8161 17.4685 39.8253C17.4792 39.8253 17.4896 39.8254 17.5002 39.8254C20.266 39.8252 22.8667 38.6142 24.8259 36.4127C26.793 34.2025 27.8763 31.2613 27.8763 28.1309C27.8763 22.9233 25.3284 17.4793 22.8644 12.2146Z" fill="#04FFD2"/>
<path d="M24.5508 29.422C24.2756 29.3482 23.9991 29.5408 23.934 29.8514C23.3643 32.5695 21.4377 34.7407 19.0258 35.3828C18.7502 35.4561 18.5796 35.7673 18.6447 36.0778C18.7004 36.3438 18.9109 36.523 19.1432 36.523C19.1823 36.523 19.2219 36.5179 19.2615 36.5073C22.0479 35.7657 24.2737 33.2573 24.9319 30.1171C24.997 29.8066 24.8264 29.4953 24.5508 29.422Z" fill="#04FFD2"/>
</g>
<defs>
<clipPath id="clip0">
<rect width="35" height="39.4444" fill="white" transform="translate(0 0.380951)"/>
</clipPath>
</defs>
</svg>
