<svg width="35" height="40" viewBox="0 0 35 40" fill="none" xmlns="http://www.w3.org/2000/svg">
<path d="M34.8999 33.1468L30.8805 24.5725C30.7485 24.2908 30.4389 24.1831 30.1888 24.3319C29.9388 24.4807 29.8432 24.8297 29.9753 25.1115L33.8646 33.4083H20.2295C20.2133 33.3188 14.2886 20.6484 14.2886 20.6484L15.1692 18.796L16.091 20.1584C16.2464 20.3881 16.4824 20.5262 16.7384 20.5375C16.9937 20.5494 17.2392 20.4317 17.4099 20.2163L19.6303 17.4161L23.9463 23.1583C24.1074 23.3728 24.3428 23.4971 24.5921 23.4995C24.5945 23.4995 24.597 23.4995 24.5995 23.4995C24.846 23.4995 25.0802 23.38 25.243 23.1708C25.2447 23.1687 25.2464 23.1664 25.2481 23.1642L27.6008 20.0464L28.5573 22.0867C28.6893 22.3685 28.999 22.4762 29.249 22.3273C29.499 22.1785 29.5945 21.8295 29.4625 21.5478L21.8912 5.39602C21.743 5.08 21.454 4.88309 21.1369 4.88201H21.1343C20.8182 4.88201 20.5292 5.07685 20.3798 5.39117L15.0047 16.6988L14.6426 17.4605C14.6426 17.4606 14.6425 17.4606 14.6425 17.4607L13.712 19.4181L10.9454 13.5163C10.8343 13.2793 10.6439 13.1093 10.4218 13.0386C10.3477 13.015 10.2701 13.0025 10.1907 13.0023C10.1899 13.0023 10.1891 13.0023 10.1883 13.0023C10.1777 13.0023 10.1672 13.003 10.1567 13.0035C10.148 13.0038 10.1393 13.0039 10.1307 13.0045C10.1228 13.0051 10.1151 13.0063 10.1073 13.0071C10.0957 13.0083 10.084 13.0093 10.0725 13.0111C10.0622 13.0127 10.052 13.015 10.0419 13.017C10.0333 13.0187 10.0246 13.02 10.0162 13.022C9.76992 13.0787 9.55555 13.2554 9.4338 13.5115L7.56007 17.4533L4.40856 24.0831C4.40802 24.0842 4.40761 24.0854 4.40706 24.0866L0.10247 33.142C-0.0409477 33.4437 -0.0334282 33.7993 0.122568 34.093C0.278632 34.3868 0.553164 34.5621 0.856953 34.5621H34.143C34.4457 34.5621 34.7198 34.3876 34.8761 34.0954C35.0325 33.8032 35.0413 33.4486 34.8999 33.1468ZM15.8555 17.3522L21.1334 6.24986L27.0857 18.9481L24.5997 22.2423L20.2868 16.5043C20.1266 16.2912 19.8927 16.1669 19.645 16.1633C19.6412 16.1632 19.6375 16.1632 19.6337 16.1632C19.3901 16.1632 19.1581 16.2801 18.9955 16.4851L16.782 19.2766L15.7005 17.6783L15.8555 17.3522ZM1.13743 33.4081L5.01382 25.2535L6.50829 26.6642C6.66948 26.8164 6.86444 26.891 7.05831 26.891C7.2934 26.891 7.52684 26.7812 7.69658 26.5669L9.41069 24.4018L10.5147 25.6363C10.7154 25.8607 11.0396 25.8592 11.2387 25.6331C11.4378 25.4069 11.4365 25.0416 11.2359 24.8172L10.0062 23.4422C9.8402 23.2567 9.61174 23.1553 9.37726 23.1627C9.14354 23.1708 8.92022 23.2881 8.76463 23.4848L7.04102 25.6618L5.50771 24.2145L10.1874 14.3699L16.2261 27.2526L14.7683 28.7668L13.4347 27.2755C13.234 27.0511 12.9099 27.0526 12.7107 27.2788C12.5115 27.5049 12.5128 27.8702 12.7135 28.0946L14.1611 29.7133C14.3281 29.9 14.5458 29.9938 14.764 29.9938C14.9716 29.9938 15.1795 29.9087 15.3441 29.7378L16.7211 28.3075L19.1121 33.4081H1.13743Z" fill="#54BB52"/>
<path d="M28.153 18.7547L21.8914 5.39642C21.7432 5.0804 21.4542 4.88349 21.137 4.88241C21.1361 4.88241 21.1353 4.88241 21.1345 4.88241C20.8183 4.88241 20.5294 5.07724 20.38 5.39149L14.6426 17.4606C14.5479 17.6598 14.5651 17.9031 14.6868 18.0828L16.0912 20.1584C16.2465 20.3881 16.4824 20.5262 16.7385 20.5375C16.9938 20.5494 17.2393 20.4317 17.41 20.2164L19.6304 17.4161L23.9464 23.1584C24.1075 23.3728 24.343 23.4971 24.5922 23.4995C24.5947 23.4995 24.5971 23.4995 24.5996 23.4995C24.8461 23.4995 25.0803 23.38 25.243 23.1708L27.801 19.8838C27.8157 19.8648 27.8293 19.8449 27.8418 19.8239L28.126 19.3447C28.2304 19.1685 28.2408 18.942 28.153 18.7547ZM27.0092 19.1514L24.6018 22.2451L20.2869 16.5043C20.1268 16.2914 19.8929 16.1671 19.6452 16.1634C19.6414 16.1633 19.6376 16.1633 19.6338 16.1633C19.3902 16.1633 19.1582 16.2801 18.9956 16.4852L16.7821 19.2767L15.7006 17.6784L21.1335 6.24987L27.1052 18.9896L27.0092 19.1514Z" fill="#834E31"/>
</svg>
