<svg width="50" height="50" viewBox="0 0 50 50" fill="none" xmlns="http://www.w3.org/2000/svg">
<path d="M47.5 16.6667H33.3333V2.5C33.3333 1.11938 32.2139 0 30.8333 0H19.1667C17.7861 0 16.6667 1.11938 16.6667 2.5V16.6667H2.5C1.11938 16.6667 0 17.7861 0 19.1667V30.8333C0 32.2139 1.11938 33.3333 2.5 33.3333H16.6667V47.5C16.6667 48.8806 17.7861 50 19.1667 50H30.8333C32.2139 50 33.3333 48.8806 33.3333 47.5V33.3333H47.5C48.8806 33.3333 50 32.2139 50 30.8333V19.1667C50 17.7861 48.8806 16.6667 47.5 16.6667ZM18.3333 2.5C18.3333 2.03979 18.7065 1.66667 19.1667 1.66667H30.8333C31.2935 1.66667 31.6667 2.03979 31.6667 2.5V23.3333C31.6667 23.7935 31.2935 24.1667 30.8333 24.1667H19.1667C18.7065 24.1667 18.3333 23.7935 18.3333 23.3333V2.5ZM2.5 31.6667C2.03979 31.6667 1.66667 31.2935 1.66667 30.8333V19.1667C1.66667 18.7065 2.03979 18.3333 2.5 18.3333H16.6667V23.3333C16.6687 23.9502 16.9006 24.5443 17.3165 25C16.9006 25.4557 16.6687 26.0498 16.6667 26.6667V31.6667H2.5ZM31.6667 47.5C31.6667 47.9602 31.2935 48.3333 30.8333 48.3333H19.1667C18.7065 48.3333 18.3333 47.9602 18.3333 47.5V26.6667C18.3333 26.2065 18.7065 25.8333 19.1667 25.8333H30.8333C31.2935 25.8333 31.6667 26.2065 31.6667 26.6667V47.5ZM48.3333 30.8333C48.3333 31.2935 47.9602 31.6667 47.5 31.6667H33.3333V26.6667C33.3313 26.0498 33.0994 25.4557 32.6835 25C33.0994 24.5443 33.3313 23.9502 33.3333 23.3333V18.3333H47.5C47.9602 18.3333 48.3333 18.7065 48.3333 19.1667V30.8333Z" fill="white"/>
<path d="M42.5 21.6667H45V23.3333H46.6667V20H42.5V21.6667Z" fill="white"/>
<path d="M45 28.3333H42.5V30H46.6667V26.6666H45V28.3333Z" fill="white"/>
<path d="M5.00004 26.6666H3.33337V30H7.50004V28.3333H5.00004V26.6666Z" fill="white"/>
<path d="M5.00004 21.6667H7.50004V20H3.33337V23.3333H5.00004V21.6667Z" fill="white"/>
<path d="M38.3333 20.8334C36.0323 20.8334 34.1666 22.699 34.1666 25C34.1666 27.3011 36.0323 29.1667 38.3333 29.1667C40.6343 29.1667 42.5 27.3011 42.5 25C42.4971 22.6998 40.6335 20.8362 38.3333 20.8334ZM38.3333 27.5C36.9527 27.5 35.8333 26.3807 35.8333 25C35.8333 23.6194 36.9527 22.5 38.3333 22.5C39.7139 22.5 40.8333 23.6194 40.8333 25C40.8333 26.3807 39.7139 27.5 38.3333 27.5Z" fill="white"/>
<path d="M21.6667 5.00004H23.3333V3.33337H20V8.33338H21.6667V5.00004Z" fill="white"/>
<path d="M28.3333 45H26.6666V46.6666H30V41.6666H28.3333V45Z" fill="white"/>
<path d="M24.1667 10.8334C24.1667 11.7538 23.4204 12.5 22.5 12.5H21.6667C21.4148 12.5 21.1764 12.614 21.0181 12.8097C20.8598 13.0058 20.7984 13.263 20.8517 13.5092C21.3099 15.4131 23.0433 16.7322 25 16.6667C27.3011 16.6667 29.1667 14.8011 29.1667 12.5C29.1667 10.199 27.3011 8.33337 25 8.33337H24.1667C23.842 8.33297 23.547 8.52136 23.4103 8.81596C23.2736 9.11015 23.3204 9.45724 23.5299 9.70504C23.8509 10.0086 24.0731 10.4017 24.1667 10.8334ZM25.8334 10.8334C25.8313 10.5848 25.7898 10.3382 25.7101 10.1026C26.9019 10.4546 27.6538 11.6289 27.4756 12.8585C27.2974 14.0886 26.2427 15.0009 25 15C24.2314 15.0163 23.4929 14.7002 22.9741 14.1325C24.6143 13.8949 25.8313 12.4903 25.8334 10.8334Z" fill="white"/>
<path d="M10 22.5H8.33337V24.1667H5.83337V25.8333H8.33337V27.5H10V25.8333H15V24.1667H10V22.5Z" fill="white"/>
<path d="M29.0426 34.5617C28.8904 34.316 28.6222 34.1666 28.3333 34.1666H21.6667C21.3778 34.1666 21.1096 34.316 20.9575 34.5617C20.8057 34.8071 20.7918 35.1139 20.9208 35.3723L24.2542 42.0389C24.3949 42.3221 24.6838 42.5008 25 42.5008C25.3162 42.5008 25.6051 42.3221 25.7459 42.0389L29.0792 35.3723C29.2082 35.1139 29.1943 34.8071 29.0426 34.5617ZM25 39.8034L23.0151 35.8333H26.9849L25 39.8034Z" fill="white"/>
<path d="M20 45H21.6667V46.6667H20V45Z" fill="white"/>
<path d="M28.3334 3.33337H30V5.00004H28.3334V3.33337Z" fill="white"/>
<path d="M21.6667 29.1667H23.3333V27.5H20V32.5H21.6667V29.1667Z" fill="white"/>
<path d="M28.3334 27.5H30V29.1667H28.3334V27.5Z" fill="white"/>
<path d="M28.3333 20.8333H26.6666V22.5H30V17.5H28.3333V20.8333Z" fill="white"/>
<path d="M20 20.8334H21.6667V22.5H20V20.8334Z" fill="white"/>
</svg>
