<svg width="50" height="50" viewBox="0 0 50 50" fill="none" xmlns="http://www.w3.org/2000/svg">
<path d="M49.6671 9.4238L40.5762 0.332919C40.3631 0.119851 40.0746 0 39.7727 0H4.54549C2.0397 0 0 2.03853 0 4.54549V45.4546C0 47.9615 2.0397 50.0001 4.54549 50.0001H45.4546C47.9604 50.0001 50.0001 47.9616 50.0001 45.4546V10.2273C50 9.92547 49.8801 9.63687 49.6671 9.4238ZM11.3637 2.27269H36.3637V15.9091C36.3637 17.1619 35.3449 18.1818 34.091 18.1818H13.6364C12.3824 18.1818 11.3637 17.1619 11.3637 15.9091V2.27269ZM40.9091 47.7273H9.09088V27.2727H40.9091V47.7273ZM47.7273 45.4546C47.7273 46.7075 46.7085 47.7273 45.4546 47.7273H43.1819V26.1363C43.1819 25.5082 42.6736 24.9999 42.0455 24.9999H7.95459C7.32646 24.9999 6.81819 25.5082 6.81819 26.1363V47.7273H4.54549C3.29148 47.7273 2.2728 46.7075 2.2728 45.4546V4.54549C2.2728 3.29265 3.29159 2.2728 4.54549 2.2728H9.09099V15.9092C9.09088 18.416 11.1306 20.4546 13.6364 20.4546H34.0909C36.5967 20.4546 38.6364 18.416 38.6364 15.9091V2.27269H39.3023L47.7273 10.6978V45.4546Z" fill="white"/>
<path d="M28.4091 15.9091H32.9546C33.5827 15.9091 34.091 15.4008 34.091 14.7727V5.68181C34.091 5.05368 33.5827 4.54541 32.9546 4.54541H28.4091C27.781 4.54541 27.2727 5.05368 27.2727 5.68181V14.7727C27.2727 15.4008 27.781 15.9091 28.4091 15.9091ZM29.5454 6.81821H31.8181V13.6364H29.5454V6.81821V6.81821Z" fill="white"/>
</svg>
