<svg width="50" height="50" viewBox="0 0 50 50" fill="none" xmlns="http://www.w3.org/2000/svg">
<path d="M49.9203 14.186C49.8683 14.0568 49.7911 13.9423 49.6933 13.8465L43.4457 7.59886C43.0394 7.19263 42.379 7.19263 41.9728 7.59886C41.5666 8.00509 41.5666 8.6655 41.9728 9.07173L46.4413 13.5423H45.8309C37.6918 13.5423 32.0774 15.7817 27.6277 20.8065C27.2464 21.2377 27.286 21.896 27.7172 22.2772C27.9151 22.4522 28.163 22.5376 28.4089 22.5376C28.6964 22.5376 28.9818 22.4189 29.1901 22.1876C31.8941 19.1336 36.2314 15.6255 45.8309 15.6255H46.4413L41.9708 20.0961C41.5645 20.5023 41.5645 21.1627 41.9708 21.5689C42.1749 21.7731 42.4415 21.8731 42.7082 21.8731C42.9749 21.8731 43.2415 21.7711 43.4457 21.5689L49.6933 15.3213C49.7891 15.2255 49.8662 15.1088 49.9203 14.9818C50.0266 14.7277 50.0266 14.4402 49.9203 14.186Z" fill="white"/>
<path d="M23.8592 27.8978C23.3759 27.5916 22.728 27.7332 22.4218 28.2186L22.1197 28.6956C22.1197 28.6956 22.1197 28.6956 22.1197 28.6976C17.9617 35.2223 13.5056 40.6241 1.04164 40.6241C0.466675 40.6242 0 41.0909 0 41.6658C0 42.2408 0.466675 42.7075 1.04164 42.7075C14.5451 42.7075 19.549 36.6098 23.8759 29.8164L24.1779 29.3373C24.4883 28.8498 24.3445 28.2061 23.8592 27.8978Z" fill="white"/>
<path d="M49.9182 35.0182C49.8661 34.889 49.789 34.7744 49.6911 34.6787L43.4435 28.431C43.0373 28.0248 42.3769 28.0248 41.9706 28.431C41.5644 28.8373 41.5644 29.4977 41.9706 29.9039L46.4412 34.3745H45.8308C32.8044 34.3745 28.8587 28.0998 24.6799 21.4544C20.301 14.4922 15.7721 7.2926 1.04164 7.2926C0.466675 7.2926 0 7.75928 0 8.33425C0 8.90922 0.466675 9.37589 1.04164 9.37589C14.6222 9.37589 18.6512 15.7818 22.9155 22.5647C27.2111 29.3956 31.6525 36.4578 45.831 36.4578H46.4414L41.9708 40.9283C41.5646 41.3345 41.5646 41.995 41.9708 42.4012C42.175 42.6054 42.4416 42.7054 42.7083 42.7054C42.975 42.7054 43.2416 42.6033 43.4458 42.4012L49.6934 36.1536C49.7892 36.0578 49.8663 35.9411 49.9204 35.814C50.0224 35.5599 50.0224 35.2724 49.9182 35.0182Z" fill="white"/>
</svg>
