<svg width="35" height="35" viewBox="0 0 35 35" fill="none" xmlns="http://www.w3.org/2000/svg">
<path d="M18.0081 0.214366C17.7237 -0.0707612 17.262 -0.071308 16.9769 0.213067C16.9764 0.213477 16.976 0.213956 16.9756 0.214366L3.85055 13.3394C3.57076 13.629 3.57882 14.0906 3.86846 14.3704C4.15106 14.6433 4.59902 14.6433 4.88155 14.3704L16.7626 2.48937V34.2708C16.7626 34.6735 17.0891 35 17.4918 35C17.8945 35 18.221 34.6735 18.221 34.2708V2.48937L30.1006 14.3689C30.3803 14.6586 30.8419 14.6666 31.1316 14.3868C31.4213 14.107 31.4293 13.6455 31.1495 13.3558C31.1436 13.3497 31.1377 13.3437 31.1316 13.3379L18.0081 0.214366Z" fill="#4CAF50"/>
<path d="M30.6168 14.5833C30.4233 14.5837 30.2376 14.5071 30.1006 14.3704L17.4918 1.76021L4.88305 14.3705C4.59341 14.6503 4.13178 14.6422 3.85198 14.3525C3.57909 14.07 3.57909 13.622 3.85198 13.3395L16.977 0.214463C17.2617 -0.0701855 17.7233 -0.0701855 18.0081 0.214463L31.1331 13.3395C31.4174 13.6247 31.4167 14.0864 31.1314 14.3707C30.9948 14.5068 30.8097 14.5833 30.6168 14.5833Z" fill="white"/>
<path d="M17.4918 35C17.0891 35 16.7626 34.6735 16.7626 34.2708V0.729189C16.7626 0.326484 17.0891 0 17.4918 0C17.8945 0 18.221 0.326484 18.221 0.729189V34.2709C18.2209 34.6735 17.8945 35 17.4918 35Z" fill="white"/>
</svg>
