<svg width="50" height="50" viewBox="0 0 50 50" fill="none" xmlns="http://www.w3.org/2000/svg">
<g clip-path="url(#clip0)">
<path d="M45.3126 0H10.9376C10.0739 0 9.37505 0.698837 9.37505 1.56252V6.24998H12.5001V3.12503H43.7501V46.8751H12.5001V43.75H9.37505V48.4375C9.37505 49.3012 10.0739 50 10.9376 50H45.3126C46.1763 50 46.8751 49.3012 46.8751 48.4375V1.56252C46.8751 0.698837 46.1762 0 45.3126 0V0Z" fill="white"/>
<path d="M18.5609 33.2703L20.7704 35.4797L31.2501 25L20.7704 14.5203L18.5609 16.7297L25.2687 23.4375H3.12518V26.5625H25.2688L18.5609 33.2703Z" fill="white"/>
</g>
<defs>
<clipPath id="clip0">
<rect width="50" height="50" fill="white"/>
</clipPath>
</defs>
</svg>
