<svg width="35" height="35" viewBox="0 0 35 35" fill="none" xmlns="http://www.w3.org/2000/svg">
<g clip-path="url(#clip0)">
<path d="M9.13164 28.3341L8.0543 28.5244C7.77615 28.5735 7.51082 28.3881 7.46166 28.1099L7.27142 27.0318C7.23908 26.8229 7.0964 26.6473 6.89787 26.5736C6.69961 26.4998 6.47704 26.5394 6.31592 26.6764C6.1548 26.8138 6.08078 27.0275 6.1222 27.2349L6.31191 28.313C6.45459 29.1141 7.15064 29.6982 7.96426 29.7C8.06205 29.6998 8.15985 29.6912 8.25604 29.6744L9.33418 29.4839C9.53965 29.4478 9.71013 29.3046 9.78147 29.1085C9.85254 28.9126 9.81407 28.6932 9.67993 28.5337C9.5458 28.3739 9.33658 28.2978 9.13111 28.3341H9.13164Z" fill="#A54B0A"/>
<path d="M20.3983 25.827L20.2086 24.7489C20.1722 24.5437 20.0293 24.3732 19.8332 24.3019C19.637 24.2305 19.4179 24.2693 19.2582 24.4034C19.0984 24.5375 19.0225 24.7468 19.0588 24.9522L19.2485 26.0296C19.2721 26.1632 19.2419 26.3005 19.1644 26.4114C19.0866 26.5226 18.968 26.5982 18.8347 26.6214L17.7565 26.8125C17.4597 26.8662 17.2528 27.1371 17.279 27.4375C17.3052 27.7381 17.5558 27.9689 17.8575 27.9705C17.8917 27.9708 17.9259 27.9678 17.9596 27.9617L19.0372 27.7715C19.4757 27.6942 19.8652 27.446 20.1207 27.0813C20.3758 26.7168 20.4758 26.2655 20.3983 25.827Z" fill="#A54B0A"/>
<path d="M13.6818 3.70547L14.7596 3.51523C14.8932 3.49091 15.0308 3.52137 15.1414 3.59966C15.2526 3.67742 15.3282 3.79605 15.3517 3.92965L15.542 5.00753C15.5911 5.28621 15.833 5.48928 16.1157 5.48982C16.1499 5.48982 16.1841 5.48688 16.2177 5.481C16.3703 5.45401 16.506 5.36771 16.5947 5.24079C16.6834 5.11387 16.7182 4.95703 16.6912 4.80446L16.5015 3.72712C16.3388 2.8149 15.4693 2.20649 14.5566 2.36574L13.4784 2.55545C13.2732 2.59179 13.1027 2.73501 13.0314 2.93087C12.9601 3.12699 12.9988 3.34609 13.1329 3.50588C13.2671 3.66566 13.4763 3.74181 13.6818 3.70547Z" fill="#A54B0A"/>
<path d="M3.9758 5.41795L5.05394 5.23012C5.37137 5.174 5.58353 4.871 5.52742 4.55357C5.47131 4.23587 5.1683 4.02399 4.85087 4.0801L3.77327 4.27034C2.86105 4.43253 2.25211 5.30253 2.41216 6.21527L2.60187 7.29341C2.65104 7.5721 2.89312 7.77544 3.17608 7.77544C3.21055 7.77544 3.24448 7.7725 3.27842 7.76689C3.43072 7.7399 3.56646 7.6536 3.65516 7.52668C3.74387 7.39976 3.77861 7.24291 3.75162 7.09034L3.56138 6.0122C3.53786 5.87887 3.56833 5.74126 3.64608 5.63038C3.72383 5.51949 3.84247 5.44387 3.9758 5.42036V5.41795Z" fill="#A54B0A"/>
<path d="M12.7733 20.7682C12.9274 20.3046 12.9403 19.8055 12.8102 19.3347C13.0731 19.2278 13.3232 19.092 13.5562 18.9301C13.7707 19.119 13.9126 19.3769 13.9572 19.659C14.2589 20.9223 15.0877 21.3245 15.5297 21.363C15.5471 21.3638 15.5644 21.3638 15.5815 21.363C15.8864 21.364 16.1426 21.1342 16.1747 20.8312C16.191 20.6787 16.1453 20.5261 16.0478 20.4075C15.9505 20.2891 15.8097 20.2145 15.6569 20.2009C15.6411 20.1974 15.2676 20.1178 15.0925 19.3836C14.9937 18.9037 14.7543 18.4639 14.4048 18.1205C14.4457 18.0687 14.4884 18.019 14.5264 17.9639C14.6498 17.7857 14.7583 17.5973 14.8502 17.4007C15.131 17.4563 15.3835 17.6088 15.5636 17.8317C15.9732 18.3172 16.568 18.6089 17.2031 18.6354C17.4006 18.6378 17.5962 18.598 17.7768 18.5186C18.071 18.3813 18.2009 18.0339 18.0689 17.7376C18.0066 17.5971 17.8909 17.4875 17.7472 17.4335C17.6034 17.3796 17.4439 17.3854 17.3047 17.4504C17.2908 17.4563 16.9258 17.573 16.4088 17.0266C16.0833 16.6611 15.6566 16.4003 15.1829 16.2776C15.2224 15.9968 15.2307 15.7123 15.2074 15.4296C15.4778 15.3387 15.7712 15.3449 16.0374 15.4472C17.2849 15.8173 18.0453 15.3005 18.2992 14.9369C18.4868 14.6715 18.4264 14.3049 18.164 14.1133C18.0397 14.023 17.8848 13.9864 17.7335 14.0115C17.582 14.0367 17.4471 14.1214 17.3589 14.2469C17.348 14.2587 17.0917 14.5425 16.3708 14.3282C15.907 14.1743 15.4078 14.1612 14.9365 14.2908C14.8296 14.0286 14.6936 13.7794 14.5314 13.5472C14.7201 13.3313 14.9785 13.1886 15.2617 13.1445C16.5247 12.8426 16.9271 12.0137 16.9656 11.572C16.9947 11.2485 16.7591 10.9612 16.436 10.927C16.2837 10.9113 16.1314 10.9572 16.013 11.0545C15.8947 11.1517 15.8201 11.2923 15.8057 11.4446C15.8057 11.4603 15.7229 11.8342 14.9886 12.0092C14.5079 12.1078 14.0678 12.3477 13.7242 12.698C13.5014 12.5241 13.2601 12.375 13.0052 12.2531C13.0605 11.9715 13.2131 11.7185 13.4365 11.5381C14.3791 10.6457 14.3121 9.72864 14.1258 9.32463C13.9885 9.03098 13.6411 8.90113 13.3448 9.03285C13.2045 9.09511 13.095 9.21081 13.041 9.35456C12.987 9.49831 12.9929 9.65756 13.0576 9.79677C13.0629 9.81147 13.1808 10.1751 12.6338 10.693C12.2683 11.0181 12.0072 11.4448 11.8843 11.9186C11.6038 11.8793 11.3195 11.8713 11.0368 11.8943C10.9489 11.6241 10.9571 11.3316 11.0608 11.067C11.4309 9.82189 10.9144 9.05957 10.5507 8.8052C10.2851 8.61843 9.91881 8.67855 9.72696 8.94067C9.63665 9.06465 9.60004 9.21963 9.62516 9.37113C9.65028 9.52236 9.73525 9.6573 9.86083 9.74547C9.87312 9.75616 10.1566 10.0124 9.94179 10.7338C9.78788 11.1977 9.77506 11.6965 9.90465 12.1679C9.64173 12.2745 9.3919 12.41 9.15917 12.5719C8.94461 12.383 8.80273 12.1251 8.7581 11.8427C8.45644 10.5797 7.62759 10.1775 7.18565 10.1391C6.86207 10.1097 6.5751 10.3453 6.54064 10.6684C6.52434 10.8209 6.57003 10.9735 6.66729 11.0921C6.76481 11.2105 6.90563 11.2851 7.05846 11.2987C7.07423 11.2987 7.44777 11.3815 7.62278 12.116C7.72218 12.5949 7.96212 13.0333 8.31162 13.3756C8.27074 13.428 8.22825 13.4777 8.19031 13.5327C8.0666 13.7109 7.95812 13.8993 7.8662 14.096C7.58538 14.0399 7.33314 13.8876 7.15305 13.665C6.26115 12.7231 5.34359 12.7897 4.93959 12.9756C4.64567 13.113 4.51582 13.4603 4.64781 13.7566C4.7098 13.8972 4.82576 14.0065 4.96952 14.0607C5.11327 14.1147 5.27252 14.1085 5.41173 14.0439C5.42642 14.0385 5.79061 13.922 6.30764 14.4677C6.63309 14.8337 7.0598 15.095 7.53354 15.219C7.4948 15.4993 7.48678 15.7831 7.50949 16.0652C7.23936 16.1561 6.94571 16.1497 6.67958 16.0471C5.43444 15.6759 4.67213 16.1932 4.41775 16.5569C4.29003 16.7348 4.27213 16.9692 4.37099 17.1647C4.46959 17.3603 4.66919 17.4848 4.88829 17.4878C5.07319 17.4881 5.24633 17.3975 5.35161 17.2454C5.36283 17.2339 5.61827 16.9502 6.33997 17.1645C6.80382 17.3184 7.30295 17.3312 7.77402 17.2011C7.88036 17.464 8.01583 17.7141 8.17802 17.9466C7.98938 18.1617 7.73153 18.3038 7.44884 18.3482C6.18633 18.6498 5.7842 19.4781 5.74519 19.9201C5.71553 20.2437 5.95093 20.5309 6.27397 20.5656H6.32821C6.62694 20.5702 6.87864 20.3433 6.90483 20.0457C6.90776 20.0299 6.98766 19.6561 7.72218 19.4811C8.2018 19.3825 8.64134 19.1431 8.98469 18.7936C9.03706 18.8345 9.08676 18.8769 9.14153 18.9149C9.32002 19.0386 9.50839 19.1471 9.70478 19.2395C9.64947 19.5201 9.49691 19.7726 9.27406 19.9521C8.33086 20.8446 8.39846 21.7616 8.58469 22.1656C8.68356 22.3762 8.89491 22.5111 9.12764 22.5122C9.20994 22.5122 9.29116 22.4943 9.36571 22.4598C9.50599 22.3975 9.61527 22.2816 9.66951 22.1378C9.72349 21.9943 9.71734 21.8348 9.65295 21.6956C9.6476 21.6804 9.52977 21.3167 10.0767 20.7997C10.4425 20.4743 10.7033 20.0478 10.8262 19.5738C11.0002 19.5994 11.1757 19.6128 11.3515 19.6141C11.4565 19.6141 11.5629 19.5949 11.669 19.5861C11.7662 19.8597 11.7617 20.1592 11.6561 20.4296C11.2861 21.6748 11.8028 22.4371 12.1665 22.6915C12.2675 22.762 12.388 22.7997 12.5114 22.7994C12.7009 22.8013 12.8794 22.7104 12.9894 22.556C13.0798 22.432 13.1166 22.2768 13.0915 22.1255C13.0667 21.974 12.9817 21.8388 12.8564 21.7507C12.8422 21.7453 12.5587 21.4896 12.7733 20.7682ZM8.70199 16.2317C8.70199 16.2205 8.70199 16.2106 8.69692 16.1996C8.49331 15.0007 9.11668 13.8141 10.2191 13.3011C11.3216 12.7883 12.6309 13.0764 13.4167 14.0043C13.422 14.0118 13.4266 14.0193 13.4325 14.027C13.7317 14.3832 13.9329 14.8113 14.016 15.269C14.016 15.2797 14.016 15.2901 14.0208 15.3005C14.2656 16.7581 13.294 18.1419 11.84 18.4064L11.8108 18.4112C10.3527 18.6578 8.96732 17.6866 8.70199 16.2317Z" fill="#A54B0A"/>
<path d="M32.6602 5.64861L20.2588 3.332C19.7287 3.23074 19.1807 3.2799 18.677 3.47362L18.4897 2.41151C18.355 1.64919 17.9232 0.971582 17.2892 0.5275C16.6548 0.0836849 15.8704 -0.0899934 15.1083 0.0444069L2.45758 2.27711C1.69527 2.41178 1.01766 2.84357 0.573841 3.47763C0.130027 4.11169 -0.0439189 4.89618 0.0907485 5.65849L4.32075 29.6288C4.56737 31.0209 5.77484 32.0368 7.18858 32.0413C7.36065 32.041 7.53273 32.0258 7.70213 31.9956L12.7343 31.108C13.1441 31.9034 13.8979 32.4653 14.7773 32.6313L27.1862 34.9487C27.3665 34.9829 27.5496 35 27.7331 35C29.1348 34.9957 30.3345 33.9932 30.5879 32.6144L34.995 9.05751C35.138 8.29573 34.9723 7.50857 34.5344 6.86916C34.0964 6.22976 33.422 5.79022 32.6602 5.64861ZM22.3999 24.5705L22.1938 23.4031C23.5552 22.7522 24.5674 21.5428 24.9684 20.0882C25.3698 18.6336 25.1205 17.0764 24.2852 15.8197C23.7244 14.9735 22.919 14.3189 21.9766 13.9424C22.5538 13.8478 23.1432 13.854 23.7185 13.9606C26.4409 14.542 28.267 17.1084 27.9236 19.871C27.5803 22.6338 25.1819 24.6755 22.3999 24.5729V24.5705ZM20.8295 14.8162C21.8468 15.0069 22.7429 15.6025 23.3126 16.4664C23.9277 17.3943 24.1334 18.5347 23.8809 19.6188C23.6284 20.703 22.9401 21.6353 21.9785 22.1959L20.6751 14.7964C20.7264 14.8028 20.7782 14.8068 20.8295 14.8162ZM7.4996 30.8453C6.54731 31.0134 5.6391 30.378 5.47077 29.4257L1.2405 5.45542C1.0727 4.50313 1.70863 3.59519 2.66065 3.42713L15.3108 1.19442C15.4124 1.17652 15.5155 1.16744 15.6189 1.16744C16.4673 1.16931 17.1924 1.77905 17.3397 2.61458L21.5697 26.5843C21.6506 27.0415 21.5462 27.5123 21.28 27.8928C21.0136 28.2733 20.607 28.5325 20.1495 28.6132L7.4996 30.8453ZM33.8469 8.83975L29.4416 32.4015C29.359 32.8587 29.0974 33.2637 28.7145 33.5269C28.3316 33.7898 27.8595 33.8892 27.4034 33.8024L14.9937 31.485C14.602 31.407 14.2495 31.1956 13.9962 30.8867L15.7579 30.5757C15.8581 30.6177 15.9623 30.6497 16.0689 30.6714L17.1318 30.8699C17.1673 30.8766 17.2031 30.8798 17.2392 30.8798C17.52 30.8795 17.7608 30.6794 17.8126 30.4034C17.823 30.3406 17.823 30.2765 17.8126 30.2137L20.3574 29.7642C21.9438 29.4826 23.0029 27.9697 22.7242 26.3829L22.6117 25.7467C22.6497 25.7467 22.6882 25.7547 22.7285 25.7547C26.054 25.6881 28.8 23.1361 29.1103 19.8245C29.4202 16.5126 27.1958 13.4954 23.9403 12.8124C22.7477 12.5947 21.5181 12.7256 20.3983 13.1895L19.5812 8.55197C19.676 8.46754 19.7407 8.35452 19.765 8.22973L19.9636 7.16736C20.0146 6.89775 20.274 6.72034 20.5436 6.77057L21.606 6.96883C21.9218 7.02574 22.2243 6.81706 22.2834 6.5015C22.3421 6.18621 22.1353 5.88214 21.8203 5.82148L20.7579 5.62296C20.1599 5.51314 19.5499 5.73972 19.1684 6.21293L18.8953 4.66612C19.2448 4.4724 19.6509 4.40641 20.044 4.47882L32.447 6.79622C32.9039 6.88119 33.3079 7.14411 33.5708 7.52727C33.8335 7.91043 33.9332 8.3823 33.8479 8.83921L33.8469 8.83975Z" fill="#F2D97E"/>
<path d="M28.364 29.5838C28.0471 29.5248 27.7425 29.734 27.6834 30.0509L27.4844 31.113C27.4333 31.3823 27.1744 31.5597 26.9048 31.5101L25.8419 31.3115C25.5261 31.2546 25.2233 31.4633 25.1646 31.7788C25.1058 32.0944 25.3126 32.3982 25.6276 32.4591L26.69 32.6577C26.7921 32.6769 26.8955 32.6865 26.9994 32.6868C27.8002 32.6854 28.4866 32.1144 28.6338 31.3273L28.8329 30.2649C28.8612 30.1126 28.8278 29.955 28.7399 29.827C28.652 29.6993 28.5168 29.6119 28.364 29.5838Z" fill="#8D57FF"/>
<path d="M31.3732 7.60684L30.3108 7.40831C29.995 7.35139 29.6922 7.56034 29.6334 7.87564C29.5744 8.1912 29.7815 8.495 30.0965 8.55592L31.1589 8.75445C31.4285 8.80522 31.6062 9.06493 31.5557 9.33454L31.3574 10.3969C31.3288 10.5492 31.3619 10.7066 31.4496 10.8343C31.5372 10.962 31.6719 11.0497 31.8242 11.0783C31.86 11.0847 31.8961 11.0879 31.9321 11.0882C32.2132 11.0879 32.454 10.8875 32.5056 10.6112L32.7038 9.54883C32.8716 8.64543 32.2763 7.77651 31.3732 7.60684Z" fill="#8D57FF"/>
<path d="M28.1061 10.383C28.1414 10.3895 28.1775 10.3927 28.2135 10.3929C28.4944 10.3927 28.7354 10.1923 28.7867 9.91598L28.8858 9.3848C28.9427 9.06897 28.734 8.7665 28.4185 8.70745C28.1032 8.64867 27.7991 8.85548 27.7385 9.1705L27.6391 9.70169C27.6108 9.85399 27.6439 10.0114 27.7315 10.1391C27.8189 10.2668 27.9538 10.3547 28.1061 10.383Z" fill="#8D57FF"/>
<path d="M27.5258 10.7798C27.5544 10.6275 27.5212 10.4704 27.4336 10.3424C27.346 10.2147 27.2113 10.1271 27.059 10.0987L26.5283 9.99961C26.3229 9.9598 26.1115 10.0333 25.975 10.192C25.8384 10.3507 25.7975 10.5706 25.8676 10.7678C25.9376 10.9653 26.108 11.1098 26.314 11.147L26.8447 11.2464C26.8802 11.253 26.9166 11.2562 26.9526 11.2562C27.2335 11.256 27.4742 11.0558 27.5258 10.7798Z" fill="#8D57FF"/>
<path d="M27.9239 11.3589C27.7716 11.3305 27.6145 11.3637 27.4865 11.4513C27.3588 11.539 27.2711 11.6736 27.2428 11.8259L27.1429 12.3566C27.1146 12.5089 27.1477 12.666 27.2353 12.794C27.323 12.9217 27.4576 13.0093 27.6099 13.0377C27.6455 13.0446 27.6816 13.0481 27.7179 13.0481C27.9987 13.0478 28.2395 12.848 28.291 12.5719L28.391 12.0408C28.4195 11.8884 28.3864 11.7308 28.2988 11.6031C28.2111 11.4751 28.0765 11.3872 27.9239 11.3589Z" fill="#8D57FF"/>
<path d="M29.7155 10.5954L29.1835 10.4963C28.8677 10.4391 28.5652 10.6481 28.5064 10.9636C28.4474 11.2789 28.6542 11.583 28.9695 11.6437L29.5006 11.743C29.5362 11.7495 29.5723 11.7527 29.6086 11.7529C29.91 11.7527 30.1617 11.5229 30.1895 11.2228C30.217 10.9228 30.0118 10.6507 29.7155 10.5954Z" fill="#8D57FF"/>
<path d="M7.48864 7.01207C7.52258 7.01207 7.55651 7.00913 7.59018 7.00325C7.74275 6.97653 7.87848 6.89022 7.96746 6.7633C8.05617 6.63638 8.09117 6.47927 8.06419 6.3267L7.96906 5.78803C7.906 5.47781 7.60728 5.27421 7.29546 5.32925C6.9839 5.38429 6.77282 5.67768 6.81958 5.99057L6.91417 6.52924C6.96333 6.80819 7.20541 7.0118 7.48864 7.01207Z" fill="#A54B0A"/>
<path d="M6.06208 8.37557C6.09601 8.37557 6.12995 8.37264 6.16361 8.36676L6.70229 8.27163C6.90776 8.23556 7.07823 8.09261 7.14984 7.89676C7.22119 7.7009 7.18271 7.4818 7.04884 7.32175C6.91471 7.16197 6.70576 7.08581 6.50028 7.12189L5.96108 7.21701C5.66262 7.26911 5.45394 7.54085 5.48012 7.84252C5.50657 8.14418 5.75908 8.37584 6.06208 8.37557Z" fill="#A54B0A"/>
<path d="M7.76814 8.00953C7.61557 8.03652 7.4801 8.12282 7.39139 8.24974C7.30241 8.37666 7.26768 8.53378 7.29467 8.68608L7.39005 9.22502C7.43922 9.50371 7.6813 9.70678 7.96426 9.70704C7.99846 9.70731 8.03266 9.70437 8.06633 9.69823C8.38376 9.64238 8.59564 9.33965 8.5398 9.02248L8.44468 8.48301C8.41769 8.33044 8.33139 8.19497 8.20447 8.10626C8.07755 8.01728 7.92071 7.98255 7.76814 8.00953Z" fill="#A54B0A"/>
<path d="M8.75703 7.89996C8.79096 7.89996 8.82489 7.89702 8.85856 7.89114L9.39776 7.79602C9.60323 7.75995 9.7737 7.61673 9.84505 7.42087C9.91639 7.22475 9.87791 7.00564 9.74378 6.84586C9.60991 6.68607 9.4007 6.60992 9.19523 6.64599L8.65656 6.74112C8.35837 6.79349 8.14969 7.06496 8.17588 7.36663C8.20179 7.6683 8.45429 7.89969 8.75703 7.89996Z" fill="#A54B0A"/>
<path d="M15.2833 22.246C15.1308 22.273 14.9953 22.3593 14.9066 22.4862C14.8176 22.6132 14.7829 22.77 14.8099 22.9226L14.905 23.4612C14.9542 23.7402 15.196 23.9435 15.4789 23.9441C15.5131 23.9441 15.5473 23.9411 15.581 23.9347C15.8984 23.8786 16.1103 23.5761 16.0545 23.2587L15.9594 22.7195C15.9032 22.4021 15.6008 22.1902 15.2833 22.246Z" fill="#A54B0A"/>
<path d="M14.4905 24.0539L13.9513 24.149C13.6545 24.2027 13.4477 24.4737 13.4739 24.774C13.5001 25.0746 13.7507 25.3055 14.0523 25.3071C14.0865 25.3073 14.1207 25.3044 14.1544 25.2982L14.6931 25.2031C15.0033 25.1403 15.2069 24.8416 15.1521 24.5298C15.0971 24.218 14.8037 24.0069 14.4905 24.0539Z" fill="#A54B0A"/>
<path d="M15.7584 24.9416C15.4412 24.9977 15.2294 25.3002 15.2852 25.6176L15.3809 26.1571C15.43 26.4355 15.6718 26.6385 15.9545 26.6391C15.9887 26.6391 16.0229 26.6361 16.0566 26.6303C16.2097 26.6035 16.3457 26.5167 16.4344 26.3892C16.5234 26.2618 16.5579 26.1044 16.5301 25.9516L16.435 25.4126C16.3778 25.096 16.0753 24.8855 15.7584 24.9416Z" fill="#A54B0A"/>
<path d="M17.862 24.0515C17.8353 23.8989 17.7488 23.7634 17.6218 23.6747C17.4952 23.5858 17.3381 23.551 17.1855 23.578L16.6463 23.6731C16.3481 23.7255 16.1392 23.9972 16.1656 24.2989C16.1918 24.6006 16.4443 24.8319 16.7473 24.8319C16.7815 24.8319 16.8157 24.8287 16.8494 24.8226L17.388 24.7275C17.5406 24.7005 17.6763 24.6144 17.7651 24.4875C17.854 24.3609 17.889 24.204 17.862 24.0515Z" fill="#A54B0A"/>
<path d="M24.8303 27.9114C24.8658 27.9181 24.9016 27.9216 24.9377 27.9213C25.2185 27.9211 25.4593 27.7212 25.5109 27.4452L25.6102 26.9135C25.6672 26.5976 25.4582 26.2949 25.1429 26.2361C24.8274 26.1771 24.5235 26.3841 24.4626 26.6992L24.3635 27.2304C24.3349 27.3827 24.368 27.54 24.4557 27.6678C24.5433 27.7955 24.678 27.8831 24.8303 27.9114Z" fill="#8D57FF"/>
<path d="M24.2467 28.3085C24.3055 27.9916 24.0966 27.687 23.7797 27.6279L23.2485 27.5285C22.9372 27.4807 22.6438 27.6886 22.5858 27.9983C22.5281 28.3082 22.7267 28.6077 23.0342 28.6756L23.5654 28.7747C23.6009 28.7814 23.6367 28.7849 23.6728 28.7846C23.9539 28.7846 24.1949 28.5845 24.2467 28.3085Z" fill="#8D57FF"/>
<path d="M24.6465 28.8886C24.4942 28.8603 24.3368 28.8934 24.2091 28.9811C24.0813 29.0684 23.9937 29.2034 23.9654 29.3557L23.8655 29.8869C23.8371 30.0392 23.8703 30.1963 23.9579 30.3243C24.0453 30.452 24.1802 30.5396 24.3325 30.568C24.368 30.5744 24.4041 30.5779 24.4405 30.5779C24.7213 30.5776 24.962 30.3775 25.0136 30.1017L25.113 29.5705C25.1416 29.4182 25.1084 29.2608 25.0211 29.1328C24.9334 29.0051 24.7988 28.9172 24.6465 28.8886Z" fill="#8D57FF"/>
<path d="M25.226 28.4918C25.1672 28.8087 25.3762 29.1133 25.6931 29.1724L26.2243 29.2715C26.2598 29.2784 26.2959 29.2816 26.3322 29.2814C26.6336 29.2811 26.8851 29.0513 26.9126 28.7512C26.9401 28.4509 26.7346 28.1794 26.4386 28.1239L25.9074 28.0247C25.7551 27.9962 25.5977 28.0296 25.47 28.1172C25.3422 28.2046 25.2543 28.3395 25.226 28.4918Z" fill="#8D57FF"/>
</g>
<defs>
<clipPath id="clip0">
<rect width="35" height="35" fill="white"/>
</clipPath>
</defs>
</svg>
