<svg width="100" height="100" viewBox="0 0 100 100" fill="none" xmlns="http://www.w3.org/2000/svg">
<path d="M82.8126 87.5H82.3329L78.6298 77.6235C79.4439 77.2264 80.1248 76.6009 80.5893 75.8233C81.0538 75.0456 81.2819 74.1496 81.2456 73.2445C81.2093 72.3395 80.9102 71.4646 80.385 70.7266C79.8597 69.9887 79.1309 69.4197 78.2876 69.0891C84.9312 62.1232 88.7632 52.946 89.0459 43.3241C89.3286 33.7022 86.042 24.3158 79.8188 16.9719C79.5511 16.6555 79.1687 16.4584 78.7557 16.424C78.3427 16.3896 77.9329 16.5206 77.6165 16.7883C77.3001 17.056 77.103 17.4384 77.0686 17.8515C77.0341 18.2645 77.1652 18.6743 77.4329 18.9907C83.4477 26.0889 86.4694 35.2463 85.8604 44.5302C85.2514 53.8142 81.0593 62.4983 74.1688 68.75H64.0626C63.6482 68.75 63.2508 68.9146 62.9577 69.2077C62.6647 69.5007 62.5001 69.8981 62.5001 70.3125C62.5001 70.7269 62.6647 71.1244 62.9577 71.4174C63.2508 71.7104 63.6482 71.875 64.0626 71.875H76.5626C76.977 71.875 77.3744 72.0396 77.6674 72.3327C77.9605 72.6257 78.1251 73.0231 78.1251 73.4375C78.1251 73.8519 77.9605 74.2494 77.6674 74.5424C77.3744 74.8354 76.977 75 76.5626 75H23.4376C23.0232 75 22.6258 74.8354 22.3327 74.5424C22.0397 74.2494 21.8751 73.8519 21.8751 73.4375C21.8751 73.0231 22.0397 72.6257 22.3327 72.3327C22.6258 72.0396 23.0232 71.875 23.4376 71.875H57.8126C58.227 71.875 58.6244 71.7104 58.9174 71.4174C59.2105 71.1244 59.3751 70.7269 59.3751 70.3125C59.3751 69.8981 59.2105 69.5007 58.9174 69.2077C58.6244 68.9146 58.227 68.75 57.8126 68.75H51.5626V67.1875C51.5626 66.7731 51.398 66.3757 51.1049 66.0827C50.8119 65.7896 50.4145 65.625 50.0001 65.625C49.5857 65.625 49.1883 65.7896 48.8952 66.0827C48.6022 66.3757 48.4376 66.7731 48.4376 67.1875V68.75H25.8313C18.8646 62.4161 14.6635 53.5997 14.1325 44.1991C13.6015 34.7984 16.783 25.565 22.9921 18.4868C29.2013 11.4086 37.9415 7.05146 47.3313 6.35345C56.7211 5.65544 66.0095 8.67235 73.197 14.7547C73.3535 14.8874 73.5347 14.9879 73.7301 15.0505C73.9255 15.1132 74.1313 15.1367 74.3358 15.1198C74.5403 15.1029 74.7395 15.0459 74.922 14.952C75.1045 14.8581 75.2666 14.7293 75.3993 14.5727C75.532 14.4161 75.6325 14.235 75.6951 14.0396C75.7578 13.8442 75.7813 13.6383 75.7644 13.4338C75.7475 13.2293 75.6905 13.0301 75.5966 12.8477C75.5027 12.6652 75.3738 12.503 75.2173 12.3703C67.5901 5.92361 57.7825 2.64472 47.8117 3.2081C37.841 3.77148 28.4651 8.13429 21.6127 15.3992C14.7603 22.664 10.9524 32.2786 10.9721 42.2653C10.9919 52.2519 14.8378 61.8513 21.7188 69.0891C20.8755 69.4197 20.1467 69.9887 19.6215 70.7266C19.0962 71.4646 18.7971 72.3395 18.7608 73.2445C18.7246 74.1496 18.9526 75.0456 19.4171 75.8233C19.8816 76.6009 20.5625 77.2264 21.3767 77.6235L17.6673 87.5H17.1876C15.9444 87.5 14.7521 87.9939 13.873 88.873C12.9939 89.752 12.5001 90.9443 12.5001 92.1875C12.5001 93.4307 12.9939 94.623 13.873 95.5021C14.7521 96.3812 15.9444 96.875 17.1876 96.875H37.5001C37.9145 96.875 38.3119 96.7104 38.6049 96.4174C38.898 96.1244 39.0626 95.7269 39.0626 95.3125C39.0626 94.8981 38.898 94.5007 38.6049 94.2077C38.3119 93.9146 37.9145 93.75 37.5001 93.75H17.1876C16.7732 93.75 16.3758 93.5854 16.0827 93.2924C15.7897 92.9994 15.6251 92.6019 15.6251 92.1875C15.6251 91.7731 15.7897 91.3757 16.0827 91.0827C16.3758 90.7896 16.7732 90.625 17.1876 90.625H82.8126C83.227 90.625 83.6244 90.7896 83.9174 91.0827C84.2105 91.3757 84.3751 91.7731 84.3751 92.1875C84.3751 92.6019 84.2105 92.9994 83.9174 93.2924C83.6244 93.5854 83.227 93.75 82.8126 93.75H43.7501C43.3357 93.75 42.9383 93.9146 42.6452 94.2077C42.3522 94.5007 42.1876 94.8981 42.1876 95.3125C42.1876 95.7269 42.3522 96.1244 42.6452 96.4174C42.9383 96.7104 43.3357 96.875 43.7501 96.875H82.8126C84.0558 96.875 85.2481 96.3812 86.1271 95.5021C87.0062 94.623 87.5001 93.4307 87.5001 92.1875C87.5001 90.9443 87.0062 89.752 86.1271 88.873C85.2481 87.9939 84.0558 87.5 82.8126 87.5V87.5ZM21.0048 87.5L24.5204 78.125H75.4798L78.9954 87.5H21.0048Z" fill="#686868"/>
<path d="M59.3751 81.25H40.6251C40.2107 81.25 39.8133 81.4146 39.5203 81.7076C39.2272 82.0007 39.0626 82.3981 39.0626 82.8125C39.0626 83.2269 39.2272 83.6243 39.5203 83.9174C39.8133 84.2104 40.2107 84.375 40.6251 84.375H59.3751C59.7895 84.375 60.187 84.2104 60.48 83.9174C60.773 83.6243 60.9376 83.2269 60.9376 82.8125C60.9376 82.3981 60.773 82.0007 60.48 81.7076C60.187 81.4146 59.7895 81.25 59.3751 81.25Z" fill="#D3C05C"/>
<path d="M71.8751 81.25H67.1876C66.7732 81.25 66.3758 81.4146 66.0828 81.7076C65.7897 82.0007 65.6251 82.3981 65.6251 82.8125C65.6251 83.2269 65.7897 83.6243 66.0828 83.9174C66.3758 84.2104 66.7732 84.375 67.1876 84.375H71.8751C72.2895 84.375 72.687 84.2104 72.98 83.9174C73.273 83.6243 73.4376 83.2269 73.4376 82.8125C73.4376 82.3981 73.273 82.0007 72.98 81.7076C72.687 81.4146 72.2895 81.25 71.8751 81.25Z" fill="#D3C05C"/>
<path d="M34.3751 81.25H28.1251C27.7107 81.25 27.3133 81.4146 27.0203 81.7076C26.7272 82.0007 26.5626 82.3981 26.5626 82.8125C26.5626 83.2269 26.7272 83.6243 27.0203 83.9174C27.3133 84.2104 27.7107 84.375 28.1251 84.375H34.3751C34.7895 84.375 35.187 84.2104 35.48 83.9174C35.773 83.6243 35.9376 83.2269 35.9376 82.8125C35.9376 82.3981 35.773 82.0007 35.48 81.7076C35.187 81.4146 34.7895 81.25 34.3751 81.25Z" fill="#D3C05C"/>
<path d="M76.2219 39.6516C75.7469 39.0531 64.3953 25 50 25C35.6047 25 24.2531 39.0531 23.7781 39.6516C23.5578 39.9282 23.4379 40.2714 23.4379 40.625C23.4379 40.9786 23.5578 41.3218 23.7781 41.5984C24.2531 42.1969 35.6047 56.25 50 56.25C64.3953 56.25 75.7469 42.1969 76.2219 41.5984C76.4422 41.3218 76.5622 40.9786 76.5622 40.625C76.5622 40.2714 76.4422 39.9282 76.2219 39.6516V39.6516ZM27.061 40.625C29.8934 37.484 33.1349 34.7375 36.6985 32.4594C35.1843 34.9079 34.3799 37.7289 34.375 40.6077C34.37 43.4866 35.1647 46.3103 36.6703 48.7641C33.12 46.4898 29.8884 43.7527 27.061 40.625V40.625ZM63.2563 48.8187C64.5594 46.7468 65.3485 44.3934 65.5578 41.9547C65.5796 41.5491 65.4426 41.151 65.1759 40.8447C64.9091 40.5384 64.5336 40.348 64.1289 40.3139C63.7242 40.2798 63.3221 40.4046 63.0078 40.6619C62.6935 40.9191 62.4918 41.2887 62.4453 41.6922C62.1842 44.7542 60.8043 47.6128 58.5691 49.7218C56.3339 51.8308 53.4 53.0426 50.328 53.1255C47.256 53.2085 44.2611 52.1569 41.9153 50.1716C39.5695 48.1863 38.0372 45.4064 37.6112 42.3629C37.1852 39.3194 37.8953 36.2257 39.6058 33.6726C41.3163 31.1195 43.9074 29.286 46.8841 28.5222C49.8609 27.7585 53.0146 28.1181 55.743 29.5324C58.4714 30.9466 60.5832 33.3164 61.675 36.1891C61.8275 36.5691 62.1232 36.874 62.4982 37.0383C62.8733 37.2026 63.2979 37.2131 63.6807 37.0675C64.0634 36.9219 64.3737 36.6319 64.5447 36.2598C64.7158 35.8878 64.734 35.4634 64.5953 35.0781C64.2418 34.1635 63.8012 33.285 63.2797 32.4547C66.8499 34.7345 70.0986 37.4824 72.9391 40.625C70.095 43.7796 66.8379 46.5357 63.2563 48.8187Z" fill="#DCDCDC"/>
<path d="M50.0001 32.8125C48.455 32.8125 46.9445 33.2707 45.6597 34.1291C44.375 34.9876 43.3736 36.2077 42.7823 37.6353C42.191 39.0628 42.0363 40.6337 42.3377 42.1491C42.6392 43.6646 43.3833 45.0567 44.4759 46.1493C45.5684 47.2419 46.9605 47.9859 48.476 48.2874C49.9914 48.5888 51.5623 48.4341 52.9898 47.8428C54.4174 47.2515 55.6375 46.2501 56.496 44.9654C57.3544 43.6806 57.8126 42.1702 57.8126 40.625C57.8101 38.5538 56.9862 36.5681 55.5216 35.1035C54.0571 33.6389 52.0714 32.815 50.0001 32.8125V32.8125ZM50.0001 45.3125C49.073 45.3125 48.1667 45.0376 47.3959 44.5225C46.625 44.0074 46.0242 43.2753 45.6694 42.4188C45.3147 41.5623 45.2218 40.6198 45.4027 39.7105C45.5836 38.8012 46.03 37.966 46.6856 37.3104C47.3411 36.6549 48.1763 36.2084 49.0856 36.0276C49.9949 35.8467 50.9374 35.9395 51.7939 36.2943C52.6505 36.6491 53.3826 37.2499 53.8976 38.0208C54.4127 38.7916 54.6876 39.6979 54.6876 40.625C54.6876 41.8682 54.1937 43.0605 53.3147 43.9395C52.4356 44.8186 51.2433 45.3125 50.0001 45.3125Z" fill="#DCDCDC"/>
<path d="M76.1517 48.5703C76.0131 48.419 75.8461 48.2964 75.6601 48.2096C75.4741 48.1228 75.2729 48.0735 75.0679 48.0645C74.8628 48.0555 74.6581 48.087 74.4652 48.1572C74.2724 48.2273 74.0952 48.3348 73.9439 48.4734C68.5173 53.4469 59.958 59.375 50.0001 59.375C40.0423 59.375 31.4829 53.4469 26.0564 48.4734C25.7503 48.1933 25.3456 48.0462 24.9311 48.0645C24.5166 48.0828 24.1264 48.265 23.8462 48.5711C23.5661 48.8771 23.419 49.2819 23.4373 49.6964C23.4556 50.1109 23.6378 50.5011 23.9439 50.7812C29.7814 56.125 39.0376 62.5 50.0001 62.5C60.9626 62.5 70.2189 56.125 76.0564 50.7812C76.2081 50.6425 76.3309 50.4752 76.4178 50.2889C76.5048 50.1026 76.5541 49.9009 76.5629 49.6956C76.5718 49.4902 76.54 49.285 76.4694 49.0919C76.3989 48.8989 76.2909 48.7216 76.1517 48.5703V48.5703Z" fill="#747272"/>
<path d="M23.9438 30.4688C23.6382 30.7489 23.4564 31.139 23.4384 31.5532C23.4203 31.9674 23.5676 32.3717 23.8477 32.6774C24.1279 32.983 24.5179 33.1648 24.9321 33.1828C25.3463 33.2008 25.7507 33.0536 26.0563 32.7735C31.4829 27.8031 40.0423 21.875 50.0001 21.875C59.9579 21.875 68.5173 27.8031 73.9438 32.7766C74.0954 32.9153 74.2727 33.0228 74.4658 33.093C74.6589 33.1631 74.8639 33.1946 75.0691 33.1855C75.2744 33.1764 75.4758 33.127 75.6619 33.0401C75.8481 32.9532 76.0153 32.8305 76.154 32.6789C76.2927 32.5274 76.4002 32.35 76.4704 32.1569C76.5405 31.9639 76.572 31.7589 76.5629 31.5536C76.5538 31.3484 76.5044 31.147 76.4175 30.9608C76.3306 30.7747 76.2079 30.6075 76.0563 30.4688C70.2188 25.125 60.9626 18.75 50.0001 18.75C39.0376 18.75 29.7813 25.125 23.9438 30.4688Z" fill="#747272"/>
<path d="M51.5626 14.0625V10.9375C51.5626 10.5231 51.398 10.1257 51.105 9.83265C50.812 9.53962 50.4145 9.375 50.0001 9.375C49.5857 9.375 49.1883 9.53962 48.8953 9.83265C48.6022 10.1257 48.4376 10.5231 48.4376 10.9375V14.0625C48.4376 14.4769 48.6022 14.8743 48.8953 15.1674C49.1883 15.4604 49.5857 15.625 50.0001 15.625C50.4145 15.625 50.812 15.4604 51.105 15.1674C51.398 14.8743 51.5626 14.4769 51.5626 14.0625Z" fill="#8761F4"/>
<path d="M62.5001 18.7501C62.7918 18.7516 63.0781 18.6716 63.3267 18.5189C63.5752 18.3661 63.776 18.1469 63.9064 17.886L65.4689 14.761C65.5606 14.5773 65.6153 14.3774 65.6297 14.1727C65.6442 13.9679 65.6182 13.7623 65.5532 13.5676C65.4882 13.3729 65.3855 13.1929 65.2509 13.0378C65.1163 12.8828 64.9525 12.7558 64.7689 12.6641C64.5852 12.5724 64.3853 12.5177 64.1806 12.5033C63.9758 12.4888 63.7702 12.5148 63.5755 12.5798C63.3808 12.6448 63.2008 12.7475 63.0457 12.8821C62.8907 13.0167 62.7637 13.1805 62.672 13.3641L61.1095 16.4891C60.9907 16.7268 60.9345 16.9908 60.9462 17.2563C60.9579 17.5217 61.0371 17.7798 61.1763 18.0062C61.3155 18.2325 61.5101 18.4196 61.7418 18.5497C61.9734 18.6799 62.2344 18.7489 62.5001 18.7501Z" fill="#8761F4"/>
<path d="M37.5 18.75C37.7662 18.7499 38.028 18.6817 38.2605 18.552C38.493 18.4223 38.6885 18.2353 38.8284 18.0088C38.9684 17.7823 39.0481 17.5238 39.0601 17.2578C39.0721 16.9919 39.0159 16.7273 38.8969 16.4891L37.3344 13.3641C37.1491 12.9932 36.8242 12.7111 36.4309 12.5798C36.0377 12.4486 35.6084 12.4789 35.2375 12.6641C34.8666 12.8493 34.5845 13.1743 34.4532 13.5676C34.322 13.9608 34.3523 14.3901 34.5375 14.761L36.1 17.886C36.2299 18.1459 36.4298 18.3645 36.6771 18.5172C36.9244 18.6698 37.2094 18.7505 37.5 18.75Z" fill="#8761F4"/>
<path d="M67.6455 59.8328C67.3525 60.1259 67.188 60.5232 67.188 60.9375C67.188 61.3519 67.3525 61.7492 67.6455 62.0422L70.7705 65.1672C71.0652 65.4518 71.4599 65.6093 71.8695 65.6058C72.2792 65.6022 72.6711 65.4379 72.9608 65.1482C73.2505 64.8585 73.4148 64.4666 73.4184 64.0569C73.422 63.6472 73.2645 63.2525 72.9798 62.9578L69.8548 59.8328C69.5618 59.5399 69.1645 59.3754 68.7502 59.3754C68.3358 59.3754 67.9385 59.5399 67.6455 59.8328V59.8328Z" fill="#8761F4"/>
<path d="M30.1454 59.8328L27.0203 62.9578C26.8711 63.1019 26.7521 63.2743 26.6702 63.465C26.5883 63.6556 26.5452 63.8606 26.5434 64.0681C26.5416 64.2756 26.5811 64.4813 26.6597 64.6733C26.7383 64.8654 26.8543 65.0398 27.001 65.1865C27.1477 65.3332 27.3221 65.4492 27.5142 65.5278C27.7062 65.6064 27.9119 65.6459 28.1194 65.6441C28.3269 65.6423 28.5319 65.5992 28.7226 65.5173C28.9132 65.4354 29.0856 65.3164 29.2297 65.1672L32.3547 62.0422C32.6394 61.7475 32.7969 61.3528 32.7933 60.9431C32.7897 60.5334 32.6254 60.1415 32.3357 59.8518C32.046 59.5621 31.6541 59.3978 31.2444 59.3942C30.8347 59.3907 30.4401 59.5482 30.1454 59.8328V59.8328Z" fill="#8761F4"/>
</svg>
